<svg width="44" height="44" viewBox="0 0 44 44" fill="none" xmlns="http://www.w3.org/2000/svg">
<circle cx="22" cy="22" r="21" stroke="white" stroke-width="1.4"/>
<path fill-rule="evenodd" clip-rule="evenodd" d="M29.5 17.0814V15.2686C29.5 14.8443 29.1557 14.5 28.7314 14.5H26.9186C26.4914 14.5 26.15 14.8443 26.15 15.2686V17.0814C26.15 17.5057 26.4914 17.8514 26.9186 17.8514H28.7314C29.1557 17.8514 29.5 17.5057 29.5 17.0814ZM25.8471 21.9986C25.8471 24.1229 24.1229 25.8443 22 25.8443C19.8757 25.8443 18.1557 24.1243 18.1557 22C18.1557 19.8757 19.8757 18.1557 22 18.1557C24.1229 18.1557 25.8471 19.8743 25.8471 21.9986ZM28.1529 21.9986C28.1529 21.7086 28.1271 21.4229 28.0871 21.1429C28.0471 20.8671 27.99 20.5971 27.9186 20.3343H29.5V28.7329C29.5 29.1571 29.1557 29.5014 28.7314 29.5014H15.2686C14.8443 29.5014 14.5 29.1571 14.5 28.7329V20.3343H16.0814C16.0071 20.5971 15.9514 20.8671 15.9129 21.1443C15.8729 21.4243 15.8471 21.7086 15.8471 22C15.8471 25.3986 18.6014 28.1529 22 28.1529C25.3986 28.1529 28.1529 25.3986 28.1529 21.9986ZM29.6929 12C30.9671 12 32 13.0329 32 14.3071V29.6914C32 30.9671 30.9671 32 29.6929 32H14.3071C13.0329 32 12 30.9671 12 29.6914V14.3071C12 13.0329 13.0329 12 14.3071 12H29.6929Z" fill="white"/>
</svg>
