<svg width="176" height="40" viewBox="0 0 176 40" fill="none" xmlns="http://www.w3.org/2000/svg">
<rect x="0.7" y="0.7" width="174.6" height="38.6" rx="19.3" fill="#1E1E1B"/>
<path d="M22.9443 29.5375H25.4931V21.6992H30.0152C33.7425 21.6992 36.4284 19.726 36.4284 16.0261C36.4284 12.5454 33.8796 10.4625 30.1797 10.4625H22.9443V29.5375ZM25.4931 12.6003H29.9878C32.2352 12.6003 33.8248 13.7513 33.8248 16.0809C33.8248 18.3008 32.5092 19.5615 29.9056 19.5615H25.4931V12.6003Z" fill="white"/>
<path d="M46.4057 21.1511C49.8315 21.1511 50.5989 22.3296 50.5989 25.0429V25.4265C50.5989 27.2354 50.5715 28.7153 50.9278 29.5375H53.3944C53.0655 28.7427 53.1203 27.0709 53.1203 25.7554V24.9332C53.1203 21.6444 51.7774 20.466 50.2152 20.0549C52.0514 19.5615 53.4766 18.0542 53.4766 15.5602C53.4766 12.6003 51.3937 10.4625 47.4745 10.4625H40.0199V29.5375H42.5139V21.1511H46.4057ZM42.5139 12.6003L46.9538 12.6003C49.53 12.6003 50.8455 13.7513 50.8455 15.7794C50.8455 17.9171 49.5848 19.0134 46.6523 19.0134H42.5139V12.6003Z" fill="white"/>
<path d="M65.4971 10.1885C59.7143 10.1885 56.5352 14.5461 56.5352 20C56.5352 25.4814 59.6595 29.8116 65.2779 29.8116C71.2799 29.8116 74.2124 25.1525 74.2124 19.8904C74.2124 14.2172 70.8688 10.1885 65.4971 10.1885ZM65.3875 12.3536C69.5807 12.3536 71.5814 15.8342 71.5814 19.9452C71.5814 24.0014 69.8 27.6465 65.3875 27.6465C61.2765 27.6465 59.1936 24.0288 59.1936 19.9178C59.1936 15.8616 61.0847 12.3536 65.3875 12.3536Z" fill="white"/>
<path d="M93.6431 19.2327H85.8048V21.3978H91.1765V21.617C91.1765 24.8236 90.1076 27.6739 85.8322 27.6739C81.5294 27.6739 79.7753 24.0014 79.7753 20.0823C79.7753 15.8342 81.5294 12.2988 85.9418 12.2988C89.0662 12.2988 90.5735 13.861 91.2313 15.9987H93.7527C93.2046 12.6003 90.4365 10.1885 85.9966 10.1885C80.2412 10.1885 77.1169 14.4913 77.1169 20.1919C77.1169 25.6184 80.022 29.7842 85.5307 29.7842C88.9839 29.7842 90.6283 28.3042 91.4505 26.9613C91.478 28.3316 91.5602 29.1812 91.6972 29.5375H93.6431V19.2327Z" fill="white"/>
<path d="M104.645 21.1511C108.071 21.1511 108.838 22.3296 108.838 25.0429V25.4265C108.838 27.2354 108.81 28.7153 109.167 29.5375H111.633C111.304 28.7427 111.359 27.0709 111.359 25.7554V24.9332C111.359 21.6444 110.016 20.466 108.454 20.0549C110.29 19.5615 111.716 18.0542 111.716 15.5602C111.716 12.6003 109.633 10.4625 105.714 10.4625L98.2589 10.4625V29.5375H100.753V21.1511L104.645 21.1511ZM100.753 12.6003H105.193C107.769 12.6003 109.085 13.7513 109.085 15.7794C109.085 17.9171 107.824 19.0134 104.891 19.0134L100.753 19.0134V12.6003Z" fill="white"/>
<path d="M126.413 23.8096L128.523 29.5375H131.237L124.138 10.4625H121.041L114.244 29.5375H116.766L118.821 23.8096H126.413ZM119.479 21.6444C120.932 17.369 122.055 14.135 122.521 12.518H122.549C122.96 13.9706 123.946 16.629 125.783 21.6444H119.479Z" fill="white"/>
<path d="M150.59 29.5375H153.057V10.4625H149.411C147.164 16.2453 144.04 24.6043 143.574 26.4406H143.546C142.889 24.0288 140.23 16.3824 138.065 10.4625L134.31 10.4625V29.5375H136.695V21.9459C136.695 18.6571 136.613 14.4365 136.476 12.2166H136.558C137.407 15.4779 140.614 24.6592 142.258 29.5375H144.533C146.726 23.5355 149.795 15.3683 150.617 12.2714H150.727C150.645 14.2721 150.59 17.8623 150.59 21.4252V29.5375Z" fill="white"/>
<rect x="0.7" y="0.7" width="174.6" height="38.6" rx="19.3" stroke="white" stroke-width="1.4"/>
</svg>
