<svg width="152" height="40" viewBox="0 0 152 40" fill="none" xmlns="http://www.w3.org/2000/svg">
<rect x="0.7" y="0.7" width="150.6" height="38.6" rx="19.3" fill="white"/>
<path d="M28.6078 29.5512H31.1566V12.6413H37.3231V10.4762H22.4688V12.6413H28.6078V29.5512Z" fill="#1E1E1B"/>
<path d="M40.0533 10.4762V29.5512H42.5747V10.4762H40.0533Z" fill="#1E1E1B"/>
<path d="M60.1798 24.1521C59.4672 25.9883 58.1791 27.6876 55.2466 27.6876C50.8341 27.6876 49.2172 23.741 49.2172 19.9863C49.2172 16.1494 50.9164 12.3125 55.137 12.3125C58.1517 12.3125 59.522 13.8746 60.2072 15.9575L62.7286 15.9575C62.1531 12.7784 59.7139 10.2021 55.2192 10.2021C49.4364 10.2021 46.5587 14.8887 46.5587 20.0685C46.5587 25.4676 49.4364 29.7979 55.137 29.7979C59.4672 29.7979 61.879 27.3861 62.7286 24.1521H60.1798Z" fill="#1E1E1B"/>
<path d="M66.4161 29.5512H68.9101V22.3707L71.3493 20.1507L78.6668 29.5512H81.7364L73.1307 18.5338L81.3253 10.4762H78.1735C75.1862 13.5732 70.3352 18.3693 68.9101 19.8493V10.4762H66.4161V29.5512Z" fill="#1E1E1B"/>
<path d="M96.1101 18.4789H86.6274V12.6413H96.576V10.4762H84.1608V29.5512H96.713L97.0419 27.3861H86.6274V20.6441H96.1101V18.4789Z" fill="#1E1E1B"/>
<path d="M105.154 29.5512H107.702V12.6413H113.869V10.4762L99.0145 10.4762V12.6413H105.154V29.5512Z" fill="#1E1E1B"/>
<path d="M115.335 24.2343C115.746 27.1668 117.802 29.7979 122.598 29.7979C127.257 29.7979 129.532 27.3861 129.532 24.3165C129.532 21.85 128.573 19.7396 123.146 18.4241C119.802 17.6019 118.734 16.8894 118.734 15.1079C118.734 13.2991 120.022 12.2576 122.351 12.2576C125.147 12.2576 126.188 13.6554 126.544 15.3272H129.121C128.847 12.8332 126.983 10.2021 122.433 10.2021C118.185 10.2021 116.103 12.5043 116.103 15.3546C116.103 18.0404 117.665 19.5752 122.159 20.6715C125.969 21.5759 126.901 22.6447 126.901 24.5632C126.901 26.372 125.722 27.7698 122.762 27.7698C119.994 27.7698 118.432 26.5365 117.911 24.2343H115.335Z" fill="#1E1E1B"/>
<rect x="0.7" y="0.7" width="150.6" height="38.6" rx="19.3" stroke="white" stroke-width="1.4"/>
</svg>
