<svg width="44" height="44" viewBox="0 0 44 44" fill="none" xmlns="http://www.w3.org/2000/svg">
<circle cx="22" cy="22" r="21" stroke="white" stroke-width="1.4"/>
<path d="M29.9527 18.0503C30.2142 23.8221 25.9096 30.2569 18.289 30.2569C15.9717 30.2569 13.8158 29.5768 12 28.4125C14.1773 28.6696 16.3503 28.0639 18.0747 26.7138C16.2803 26.6809 14.7645 25.4937 14.2402 23.8636C14.8845 23.9864 15.5188 23.9507 16.0946 23.7936C14.1216 23.3964 12.7586 21.6191 12.8029 19.7176C13.3572 20.0247 13.9887 20.209 14.6616 20.2304C12.8343 19.0089 12.3172 16.5959 13.3915 14.7515C15.4145 17.2345 18.439 18.8675 21.8493 19.0389C21.2507 16.473 23.1979 14 25.8481 14C27.0268 14 28.094 14.4986 28.8426 15.2958C29.777 15.1129 30.657 14.7701 31.4485 14.3C31.1414 15.2587 30.4913 16.0616 29.6441 16.5702C30.4742 16.4702 31.2657 16.2502 32 15.923C31.4514 16.7488 30.7571 17.4717 29.9527 18.0503Z" fill="white"/>
</svg>
