<svg width="44" height="44" viewBox="0 0 44 44" fill="none" xmlns="http://www.w3.org/2000/svg">
<circle cx="22" cy="22" r="21" stroke="white" stroke-width="1.4"/>
<path fill-rule="evenodd" clip-rule="evenodd" d="M21.0089 30.3626C24.1144 30.3626 29.0265 24.4436 31.0614 20.0961C34.9421 11.805 25.6769 10.461 23.4503 17.7563C24.8578 17.1535 26.4789 17.2124 26.2762 19.1424C26.1627 20.4598 23.9447 24.1473 23.045 24.1473C21.9537 24.1473 21.3031 19.9972 20.8343 17.0135L20.755 16.5047C20.3961 14.226 19.4378 13.1624 17.8814 13.3123C16.7559 13.416 15.0567 14.9556 13.2512 16.5908C12.8374 16.9649 12.4187 17.3443 12 17.7123L12.9399 18.9248C14.4817 17.846 15.0127 17.3562 15.8355 19.4924C16.3262 20.7687 16.7107 22.2332 17.0867 23.6654C17.9925 27.1079 18.8482 30.3626 21.0089 30.3626Z" fill="white"/>
</svg>
