<?xml version="1.0" encoding="utf-8"?>
<!-- Generator: Adobe Illustrator 27.5.0, SVG Export Plug-In . SVG Version: 6.00 Build 0)  -->
<svg version="1.1" id="Layer_1" xmlns="http://www.w3.org/2000/svg" xmlns:xlink="http://www.w3.org/1999/xlink" x="0px" y="0px"
	 viewBox="0 0 120.1 98.4" style="enable-background:new 0 0 120.1 98.4;" xml:space="preserve">
<style type="text/css">
	.st0{fill:#FFFFFF;}
</style>
<g>
	<g>
		<path class="st0" d="M117.7,87.9l-1,3.6c-0.2,0.7-0.3,1.3-0.4,1.8l-0.1-0.3c-0.2-0.7-0.2-0.7-0.4-1.4l-1.2-3.7h-2.5l2.6,6.7
			c0.3,0.7,0.3,0.7,0.3,1c0,0.7-0.4,1-1.2,1h-0.7v1.8h1.4c1.8,0,2.2-0.3,2.9-2.5l2.8-8H117.7z M111,88h-1.4v-2.5h-2.3V88h-1.1v1.7
			h1.1v3.6c0,1.2,0.1,1.7,0.5,2.1c0.3,0.4,0.9,0.5,1.9,0.5h1.4v-1.8h-0.8c-0.5,0-0.6-0.1-0.6-1.4v-3.1h1.4V88z M104.4,84.9h-2.3v1.9
			h2.3V84.9z M104.4,87.9h-2.3v8h2.3V87.9z M100.4,90.3c-0.2-1.7-1.5-2.6-3.5-2.6c-2.1,0-3.4,1-3.4,2.6c0,1.3,0.7,1.9,2.4,2.3
			l1.5,0.3c0.6,0.1,0.9,0.4,0.9,0.7c0,0.5-0.5,0.8-1.2,0.8c-0.9,0-1.4-0.4-1.6-1.1h-2.2c0.1,1.8,1.5,2.8,3.7,2.8s3.6-1.1,3.6-2.7
			c0-0.6-0.2-1.2-0.6-1.6c-0.3-0.4-0.8-0.6-1.8-0.8l-1.5-0.3c-0.7-0.2-1-0.3-1-0.6c0-0.4,0.4-0.7,1.1-0.7c0.8,0,1.3,0.3,1.4,0.9
			H100.4z M87.2,87.9v8h2.3v-2.2c0-1.6,0.1-2.3,0.3-2.8c0.3-0.6,0.9-1,1.7-1c0.2,0,0.3,0,0.6,0v-2.2c-1.7,0-2.3,0.3-2.8,1.6l0.1-1.4
			H87.2z M79.9,90.9c0.2-0.9,0.8-1.5,1.7-1.5c0.9,0,1.5,0.5,1.6,1.5H79.9z M85.6,92.6c0-1.1-0.1-1.8-0.4-2.4
			c-0.6-1.6-1.9-2.5-3.6-2.5c-2.4,0-4.1,1.7-4.1,4.2c0,2.5,1.6,4.2,4.1,4.2c1.9,0,3.4-1,3.8-2.5h-2.4c-0.3,0.5-0.8,0.7-1.4,0.7
			c-1,0-1.7-0.6-1.8-1.7H85.6z M73.9,95.9l2.7-8h-2.5L73.3,91c-0.1,0.5-0.3,1.4-0.5,2.3c-0.3-1-0.5-1.7-0.6-2.3l-0.9-3.1h-2.5l2.9,8
			H73.9z M67.4,84.9H65v1.9h2.3V84.9z M67.4,87.9H65v8h2.3V87.9z M55.5,87.9v8h2.3v-4.5c0-0.7,0.1-1,0.3-1.3c0.2-0.3,0.6-0.4,1-0.4
			c0.4,0,0.8,0.2,1,0.5c0.2,0.3,0.2,0.6,0.2,1.4v4.3h2.3v-5.2c0-1.9-1.1-3-2.8-3c-0.8,0-1.3,0.2-2.2,1v-0.8H55.5z M50.8,84.9v7.3
			c0,0.7-0.1,1.1-0.4,1.4C50,93.9,49.5,94,48.9,94c-0.6,0-1.1-0.2-1.5-0.5c-0.3-0.3-0.4-0.6-0.4-1.4v-7.3h-2.5v7.5
			c0,1.4,0.4,2.3,1.2,2.9c0.8,0.6,2,0.9,3.2,0.9c1.3,0,2.4-0.3,3.2-0.9c0.8-0.6,1.2-1.5,1.2-2.9v-7.5H50.8z M34.6,89.6
			c1.2,0,1.9,0.8,1.9,2.4c0,1.4-0.7,2.3-1.9,2.3c-1.2,0-1.9-0.9-1.9-2.3C32.7,90.4,33.4,89.6,34.6,89.6 M34.6,87.7
			c-2.5,0-4.2,1.8-4.2,4.2c0,2.5,1.8,4.2,4.2,4.2c2.5,0,4.2-1.7,4.2-4.1C38.9,89.4,37.1,87.7,34.6,87.7 M29.3,88h-1.4v-2.5h-2.3V88
			h-1.1v1.7h1.1v3.6c0,1.2,0.1,1.7,0.5,2.1c0.3,0.4,0.9,0.5,1.9,0.5h1.4v-1.8h-0.8c-0.5,0-0.6-0.1-0.6-1.4v-3.1h1.4V88z M23,84.9
			h-2.3v11H23V84.9z M16.4,93.3c-0.4,0.7-0.9,1-1.7,1c-0.7,0-1.2-0.3-1.2-0.8c0-0.5,0.4-0.8,1.2-1l0.8-0.2c0.4-0.1,0.6-0.1,0.9-0.2
			V93.3z M13.6,90.4c0.1-0.6,0.6-1,1.4-1c0.8,0,1.2,0.3,1.2,0.7c0,0.3-0.2,0.5-0.7,0.5L14.3,91c-2.2,0.4-3.2,1.1-3.2,2.6
			c0,1.5,1.2,2.5,2.9,2.5c1,0,1.5-0.2,2.3-0.8c0.1,0.3,0.1,0.3,0.2,0.6h2.4c-0.3-0.4-0.3-0.5-0.3-1.4v-3.7c0-1.2-0.2-1.8-0.8-2.3
			c-0.6-0.6-1.6-0.8-2.8-0.8c-2.2,0-3.4,0.9-3.5,2.7H13.6z M6.5,91.7H4l1.3-4.3L6.5,91.7z M7,93.7l0.6,2.2h2.8l-3.5-11H3.8L0,95.9
			h2.7l0.7-2.2H7z"/>
		<path class="st0" d="M67.4,16.7h8.1c0,5-3.5,8.2-8.1,8.5v7.9c9.6-0.5,16.7-7,16.7-19V0H67.4V16.7z"/>
		<path class="st0" d="M89.7,16.7h8.1c0,5-3.5,8.2-8.1,8.5v7.9c9.6-0.5,16.7-7,16.7-19V0H89.7V16.7z"/>
	</g>
	<path class="st0" d="M44.4,43.3H27.2l8.6-24.7L44.4,43.3z M70.9,69.4L46.3,0h-21L0.7,69.4h17.5l4.3-12.3h26.7l4.3,12.3H70.9z"/>
</g>
</svg>
