<svg width="140" height="40" viewBox="0 0 140 40" fill="none" xmlns="http://www.w3.org/2000/svg">
<path d="M36.7672 23.8096L38.8775 29.5375H41.5907L34.4924 10.4625H31.3955L24.5986 29.5375H27.12L29.1755 23.8096H36.7672ZM29.8333 21.6444C31.2858 17.369 32.4095 14.135 32.8754 12.518H32.9028C33.3139 13.9706 34.3006 16.629 36.1368 21.6444H29.8333Z" fill="white"/>
<path d="M44.5842 29.5375H52.0663C55.6839 29.5375 58.4246 27.5369 58.4246 23.9466C58.4246 21.1511 56.3965 19.8082 55.0536 19.3971C56.5335 18.8764 57.7942 17.4512 57.7942 15.2313C57.7942 12.6003 55.9306 10.4625 51.9018 10.4625H44.5842V29.5375ZM47.0508 18.4105V12.5729H51.7922C54.0395 12.5729 55.2454 13.7513 55.2454 15.4505C55.2454 17.3142 54.1766 18.4105 51.4085 18.4105H47.0508ZM47.0508 20.4934H51.2715C54.5054 20.4934 55.821 21.8911 55.821 23.9466C55.821 26.331 54.1492 27.4546 51.7648 27.4546H47.0508V20.4934Z" fill="white"/>
<path d="M70.1953 10.1885C64.4125 10.1885 61.2333 14.5461 61.2333 20C61.2333 25.4814 64.3577 29.8116 69.976 29.8116C75.9781 29.8116 78.9106 25.1525 78.9106 19.8904C78.9106 14.2172 75.567 10.1885 70.1953 10.1885ZM70.0857 12.3536C74.2789 12.3536 76.2795 15.8342 76.2795 19.9452C76.2795 24.0014 74.4981 27.6465 70.0857 27.6465C65.9747 27.6465 63.8918 24.0288 63.8918 19.9178C63.8918 15.8616 65.7828 12.3536 70.0857 12.3536Z" fill="white"/>
<path d="M82.7991 10.4625V22.0007C82.7991 27.8657 86.2523 29.7842 90.2263 29.7842C94.2825 29.7842 97.7083 28.0028 97.7083 21.8089V10.4625H95.1595V21.9459C95.1595 26.3584 93.1314 27.6739 90.2811 27.6739C87.8419 27.6739 85.3753 26.4406 85.3753 21.9459V10.4625H82.7991Z" fill="white"/>
<path d="M106.687 29.5375H109.236V12.6277H115.402V10.4625L100.548 10.4625V12.6277H106.687V29.5375Z" fill="white"/>
<rect x="0.7" y="0.7" width="138.6" height="38.6" rx="19.3" stroke="white" stroke-width="1.4"/>
</svg>
