<?xml version="1.0" encoding="UTF-8"?>
<svg id="Layer_1" data-name="Layer 1" xmlns="http://www.w3.org/2000/svg" viewBox="0 0 1054.09 500">
  <defs>
    <style>
      .cls-1 {
        fill: #1d1e1c;
        fill-rule: evenodd;
      }
    </style>
  </defs>
  <path class="cls-1" d="M75.33,427.68h-.92v.92h.92v-.92ZM117.02,131.16h-1.83v-.92h-.92v.92h-.92v.92h-1.83v.92h-1.63v.92h-1.83v.92h-2.75v.92h-.92v.92h-.92v.92h-1.63v.92h-.92v.92h-.92v.92h-1.83v.92h-.92v.92h-.92v.92h-1.63v1.73h-.92v1.73h-.92v.92h-.92v1.73h-.92v1.73h-.92v.92h-.92v1.73h-.92v.92h-.92v.92h-.92v.92h-.92v.92h-.92v.92h-1.83v.92h-.41v.92h-.92v.92h-.92v.92h-.92v1.73h-.92v1.73h-.92v.92h-.92v1.73h-.92v1.73h-.71v.92h-.92v2.64h-.92v1.73h-.92v1.73h-.92v1.73h-.92v1.73h-.92v1.73h-.92v1.73h-.71v1.73h-.92v1.73h-.92v1.73h-.92v.92h-.92v2.64h-.92v2.64h-.92v1.73h-.92v2.64h-.71v2.64h-.92v1.73h-.92v2.64h-.92v2.64h-.92v1.73h-.92v2.64h-.92v2.64h-.92v1.73h-.71v2.64h-.92v1.73h-.92v3.56h-.92v3.56h-.92v3.56h-.92v3.56h-.92v3.56h-.92v17.8h3.66v-.92h.92v-.92h.92v-.31h.92v-.92h1.83v-.92h.92v-.92h.92v-.92h.92v-.92h.92v-.92h.92v-.92h.71v-.71h.92v-.92h.92v-.92h.92v-.92h.92v-.92h.92v-.92h.92v-.92h.92v-.92h.71v-.71h.92v-1.73h.92v-.92h.92v-.92h.92v-1.73h.92v-.92h.92v-.92h.92v-1.73h.71v-.92h.92v-.92h.92v-1.73h.92v-.92h.92v-.92h.92v-1.73h.92v-.92h.92v-.92h.71v-1.73h.92v-.92h.92v-.92h.92v-1.73h.92v-.92h.92v-1.73h.92v-1.73h.92v-1.73h.92v-1.73h.92v-1.73h.92v-.92h.92v-1.73h.92v-1.73h.92v-1.73h.92v-1.73h.41v-1.73h.92v-.92h.92v-1.73h.92v-1.73h.92v-2.24h.92v-1.73h.92v-1.73h.92v-2.64h.71v-2.64h.92v-2.64h.92v-2.85h.92v-1.73h.92v-2.64h.92v-1.73h.92v-2.64h.92v-2.64h.92v-2.85h.92v-2.64h.92v-2.64h.92v-3.56h.92v-4.47h.92v-4.47h.92v-5.29h.92v-4.37h.92v-5.39h-.41Zm8.85,200.63h.92v1.73h-.92v.92h-.92v1.73h-.81v1.73h-.92v1.73h-.92v.92h-.92v1.73h-.92v.92h-.92v.92h-.92v.92h-.92v.92h-.71v.92h-.92v1.73h-.92v.92h-.92v.92h-.92v.92h-.92v.92h-.92v.92h-.92v-2.64h.92v-3.56h.92v-1.73h.92v-.92h.92v-1.73h.92v-.92h.92v-1.73h.92v-1.73h.92v-1.73h.92v-1.73h.92v-1.73h.92v-1.73h1.83v-.92h.92v-.92h.92v2.64h1.53v-.3h0Zm.92-.81h.92v.92h-.92v-.92Zm7.12-10.68h.92v2.64h-1.83v-2.64h.92Zm41.69-112.77h.92v.92h-2.75v-.92h1.83Zm6.2,4.47h-1.73v.92h-1.83v6.2h.92v-1.73h.92v-1.73h.92v-1.73h.92v-1.93h-.1Zm4.47,3.56h-1.83v.92h-1.83v1.73h-.92v1.73h-.92v4.47h.92v-.92h.92v-.92h.92v-.92h.92v-1.73h.92v-2.64h.92v-1.73h0Zm6.2,9.76h.92v.92h-.92v-.92Zm1.83,7.93h.92v.92h-.92v-.92Zm23.08-91.42h-.92v.92h.92v-.92Zm11.49-34.57h-.92v1.73h-.92v1.73h-.92v.92h-.92v1.73h.92v3.56h-.92v1.73h-.92v1.73h-.92v2.64h-.92v1.73h-.71v1.73h-.92v1.73h-.92v3.56h-.92v3.56h-.92v2.64h-.92v2.64h.92v-1.73h.92v-1.73h.92v-1.73h.92v-1.73h.92v-1.73h.92v-1.73h.92v-1.73h.92v-2.64h.92v-2.64h.92v-2.64h.92v-2.64h.92v-2.75h.92v-7.93s-.2,0-.2,0Zm13.32,7.93h.92v2.64h-.92v-2.64h0Zm4.47-28.37h.92v10.68h-.92v8.03h-.92v3.56h-.92v2.64h-.92v3.56h-.81v-5.29h.92v-6.2h.92v-5.29h.92v-8.85h-.92v-.92h-.92v-1.73h-.92v-1.73h2.75v-.92h.92v2.44h-.1Zm177.54,36.4h.92v2.64h-.92v.92h-1.83v-3.56h1.83Zm28.37,288.48h-.92v1.73h.92v-1.73Zm41.69-182.02h-.92v-.92h-.92v-.92h-.92v-.81h-.92v-.92h-.92v-.92h-.92v-.92h-.92v-1.73h-4.58v.92h-.92v.92h-1.32v1.73h-.92v.92h-.92v.92h-.92v.92h-.92v.92h-.92v2.64h-.92v1.73h-.92v1.73h-.71v1.73h-.92v1.73h-.92v1.73h-.92v1.73h-.92v1.73h-.92v1.73h-.92v1.73h-.92v1.73h-.71v1.73h-.92v1.73h-.92v2.64h-.92v2.64h-.92v1.73h-.92v2.64h-.92v1.73h-.92v2.64h-.71v1.73h-.92v2.64h-.92v1.73h-.92v2.64h-.92v1.73h-.92v3.56h-.92v2.64h-.92v2.64h-.71v2.64h-.92v3.56h-.92v2.64h-.92v2.64h-.92v2.64h-.92v2.64h-.92v3.56h-.92v3.56h-.71v2.64h-.92v3.56h-.92v3.56h-.92v2.64h-.92v3.56h-.92v2.64h-.92v3.56h-.92v3.56h-.71v3.56h-.92v3.56h-.92v3.56h-.92v3.56h-.92v3.56h-.92v2.64h-.92v4.47h-.92v4.47h-.92v4.47h-.92v13.32h.92v-.92h.92v-.92h.92v-.92h.92v-.92h.92v-.92h.92v-.92h.92v-.92h.92v-1.73h.92v-.92h.92v-.92h.92v-1.73h.92v-.92h.92v-.92h.92v-1.73h.92v-.92h.92v-1.73h.92v-1.73h.92v-1.73h.92v-1.73h.92v-1.73h.92v-1.73h.92v-1.73h.92v-1.73h.92v-1.73h.92v-1.73h.92v-1.73h.92v-2.14h.92v-.92h.92v-1.73h.92v-1.73h.92v-.92h.92v-1.83h.92v-1.73h.92v-.92h.92v-1.73h.92v-1.73h.92v-1.73h.92v-2.64h.92v-2.64h.92v-2.64h.92v-2.64h.92v-2.64h.92v-1.73h.92v-2.64h.92v-2.64h.92v-2.64h.92v-1.73h.92v-2.64h.92v-2.64h.92v-2.64h.92v-1.73h.92v-2.64h.92v-2.64h.92v-2.64h.92v-.92h.92v-.92h.92v-.92h.92v-3.15h.92v-2.64h.92v-3.56h.92v-2.64h.92v-3.56h.92v-2.64h.92v-3.56h.92v-2.64h.92v-3.56h.92v-4.47h.92v-4.47h.92v-4.47h.92v-4.47h.92v-4.47h.92v-6.1h-1.73ZM704.77,55.71h.92v8.85h-.92v3.56h-.92v5.39h-.92v3.56h-.92v2.64h-.92v1.73h-.92v.92h-.92v.92h-.92v.92h-.71v-1.73h-.92v1.73h-.92v.92h-.92v.92h-.92v1.73h-.92v.92h-.92v.92h-.92v.92h-.71v1.73h-.92v.92h-.92v1.73h-.92v.92h-.92v1.73h-.92v.92h-.92v.92h-1.63v.92h-3.66v.92h-.92v.92h-.92v.92h-1.63v.92h-1.83v.92h-5.29v-.92h-1.83v.92h-1.83v.92h-7.32v.92h-3.66v.92h-3.66v-1.73h-.92v-1.73h-.92v-2.64h-.2v-1.73h-.92v-2.64h-.92v-5.29h-.92v-5.29h-1.83v-.92h-.92v-.92h-.92v-.92h-.71v-3.15h.92v-3.56h-.92v-5.29h-3.66v-1.73h1.83v-.92h.92v-.92h.92v-.92h.92v-.92h.92v-1.73h.92v-.92h.92v-.92h.92v-.92h.92v-1.73h.92v-.92h.92v-.92h.92v-.92h.92v-1.73h.92v-.92h.92v-1.73h.92v-1.73h.92v-1.73h.92v-1.73h.92v-1.73h.92v-1.73h.92v-1.73h.92v-1.73h.92v-1.73h.92v-1.73h.92v-1.73h.92v-1.73h.92v-2.24h.92v-1.73h.92v-1.73h.92v-2.64h.92v-1.73h.92v-1.73h.92v-2.03h.92v-1.73h.92v-1.83h.92v-1.73h.92v-1.83h.92v-2.64h.92v.92h3.66v.92h.92v.92h1.83v.92h4.58v-1.02h1.83v-.92h.92v7.12h.92v1.73h.92v1.73h.92v1.93h.92v.92h.92v1.73h.92v1.73h.92v.92h.92v1.83h.92v1.73h.92v.92h.92v1.73h.92v.92h.92v4.47h.92v.92h.92v.92h.92v1.63h.92v.92h.92v6.2h.92v1.73h.92v1.83h-1.93Zm39.86,139.41h-.92v.92h-.92v.92h-1.83v.92h-.92v.92h-1.63v.92h-.92v.92h-1.83v.92h-.92v.92h-.92v.92h-.92v.92h-.71v.92h-.92v.92h-.92v.92h-.92v.92h-1.83v.92h-.92v.92h-.92v.92h-.71v.92h-.92v.92h-1.83v.92h-.92v.92h-.92v.92h-.92v.92h-.92v.92h-1.83v.92h-.92v.92h-.92v.92h-.92v.92h-.92v.92h-1.83v.92h-.92v.92h-.92v.92h-.92v.92h-.92v.92h-1.83v1.73h-.92v.92h-.2v.92h-.92v.92h-.92v.92h-.92v.92h-.92v.92h-.91v.92h-.92v.92h-.92v.92h-.71v1.73h-.92v.92h-.92v.92h-.92v.92h-.92v.92h-.92v.92h-.92v.92h-.92v.92h-.71v.92h-.92v.92h-.92v.92h-.92v1.73h-.92v.92h-.92v.92h-.92v1.73h-.92v.92h-.71v.92h-.92v1.73h-.92v.92h-.92v.92h-.92v1.73h-.92v.92h-.92v.92h-.92v1.73h-.71v.92h-.92v.92h-.92v1.73h-.92v.92h-.92v.92h-.92v.92h-.92v1.73h-.92v.92h-.71v1.73h-.92v.92h-.92v1.73h-.92v.92h-.92v1.73h-.92v.92h-.92v1.73h-.92v.92h-.92v1.73h-.92v.92h-.92v1.73h-.92v.92h-.92v1.73h-.92v.92h-.92v.92h-.91v2.64h-.92v2.64h-.92v2.64h-.92v1.73h3.66v-.92h.92v-.92h1.83v-2.03h.92v-.92h1.83v-.92h.92v-.92h1.83v-.92h.92v-.92h1.83v-.92h.92v-.92h1.83v-.71h.92v-.92h1.83v-.92h.92v-.92h.92v-.92h1.83v-.92h.92v-.92h.92v-.92h.92v-.71h.92v-.92h.92v-.92h.92v-.92h.92v-.92h.92v-.92h1.83v-.92h.92v-.92h.92v-.71h.92v-.92h.92v-.92h.92v-.92h.92v-.92h.92v-.92h.92v-.92h.92v-.92h.92v-.92h.92v-.92h.92v-.92h.92v-.92h.92v-.92h.92v-.92h.92v-.92h.92v-.92h.92v-.92h.92v-.92h.92v-.92h.92v-.92h.92v-.92h.92v-.92h.92v-.92h.92v-.2h.92v-.92h.92v-.92h.92v-1.73h.92v-.92h.92v-.92h.92v-.92h.92v-.81h.92v-.92h.92v-1.73h.92v-.92h.92v-.92h.92v-.92h.92v-.92h.92v-.81h.92v-1.73h.92v-.92h.92v-.92h.92v-.92h.92v-.92h.92v-.92h.92v-1.73h.92v-.92h.92v-1.73h.92v-1.73h.92v-1.83h.92v-.92h.92v-1.73h.92v-1.73h.92v-1.73h.92v-1.02h.92v-1.73h.92v-1.73h.92v-1.73h.92v-.92h.92v-1.73h.92v-1.73h.92v-1.73h.92v-1.73h.92v-1.73h.92v-3.56h.92v-3.56h.92v-2.95h-2.34Zm38.23,110.13h-1.83v.92h-1.83v.92h2.75v-.92h.92v-.92h0Zm40.78-25.83h.92v2.64h-.92v1.73h-.92v1.73h-.92v1.73h-.92v1.73h-.92v1.73h-.92v.92h-.92v.92h-.92v.92h-.61v.92h-.92v.92h-.92v.92h-.92v.92h-.92v.92h-.92v.92h-.92v.92h-1.63v.92h-.92v.92h-1.83v.92h-1.83v.92h-.92v.92h-1.63v.92h-.92v.92h-1.83v.92h-1.83v.92h-.92v.92h-1.63v.92h-5.49v-.92h.92v-.92h.92v-1.73h-.92v-.92h-.92v1.73h-.92v.92h-1.63v.92h-2.75v.92h-3.46v.92h-1.83v.92h-1.83v.92h-2.75v-1.22h-.92v-.92h-.92v-.92h-2.75v-.92h-2.75v-.92h-.92v2.64h1.83v2.64h-.92v.92h-.92v-.92h-.92v-.92h-.92v-.71h-.92v.92h-4.78v-.92h-.92v-.92h-.92v-1.73h-1.73v-.92h-1.73v-.92h-1.83v-.92h-2.64v-.92h-2.64v-.81h-2.75v-.92h-1.83v-.92h-1.83v-.92h-1.63v-.92h-1.83v-.92h-1.83v-.92h-1.83v-.92h-.71v-.71h-.92v-.92h-.92v-.92h-.92v-.92h-.92v-1.73h-.92v-.92h-.92v-1.73h-.92v-3.56h-.71v-3.56h-.92v-1.73h-.92v-2.64h-.92v-2.75h-.92v1.73h-.92v.92h-.92v.92h-.92v.92h-.92v.92h-.92v.92h-.92v1.73h-.92v.92h-.92v.92h-.92v.92h-.92v.92h-.91v.92h-.92v.92h-.92v.92h-.92v.92h-.92v.92h-.92v.92h-.92v.92h-.92v.92h-.2v.92h-.92v.92h-.92v.92h-.92v.92h-.92v.92h-.91v.92h-.92v.92h-.92v.92h-.71v.92h-.92v.92h-.92v.92h-.92v.92h-.92v.92h-1.83v.92h-.92v.92h-.71v.92h-.92v.92h-1.83v.92h-.92v.92h-.91v.92h-.92v.92h-1.63v.92h-.92v.92h-1.83v.92h-.92v.92h-1.83v.92h-.92v.92h-1.63v.92h-.92v.92h-1.83v.92h-.92v.92h-1.83v.92h-1.63v1.73h-.92v1.73h-.92v.92h-.92v1.73h-.92v.92h-.92v.92h-.92v.92h-1.83v.92h-1.83v.92h-1.83v.92h-1.83v.92h-6.41v-.92h-1.12v-.92h-1.83v-.92h-.92v-2.14h-1.83v-.92h-.92v-.92h-.71v-.92h-1.83v-.92h-.92v-.92h-1.83v-.92h-.92v-.92h-.92v-.92h-1.63v-.92h-1.83v-.92h-3.66v-.92h-1.63v-.92h-1.83v-.92h-.92v-.92h-.92v-.92h-.92v-.92h-.92v-.92h-.71v-1.73h-.92v-.92h-.92v-1.73h-.92v-1.73h-.92v-1.73h-.92v-1.73h-.92v-1.73h-.92v.92h-.71v.92h-1.83v.92h-1.83v.92h-.92v.92h-1.83v.92h-1.83v.92h-1.83v.92h-1.83v.92h-2.75v.92h-1.83v.92h-2.75v.92h-2.95v-.92h-.92v-.92h-.92v-.92h-.92v-.92h-1.83v-.81h-1.63v-.92h-1.83v-.92h-2.75v-.92h-1.63v-.92h-2.75v-.92h-1.83v-.92h-1.83v-.92h-2.64v-.71h-2.64v-.92h-2.54v-.92h-2.75v-.92h-1.83v-.92h-.92v-.92h-.92v-.92h-.71v-.92h-.92v-.71h-.92v-1.73h-.92v-.92h-.92v-1.73h-.92v-3.56h-.92v-4.47h-.92v-4.47h-.92v-10.68h.92v-3.56h.92v-3.56h.92v-4.47h.92v-4.47h.92v-2.64h.92v-2.54h.92v-2.64h.92v-2.64h.92v-2.64h-2.75v-.92h-.92v.92h-2.75v.92h-.92v.92h-1.83v.92h-1.83v.92h-2.75v.92h-8.44v.92h-2.75v.92h-4.37v-.92h-1.83v-.92h-2.75v-.92h-1.63v-.92h-1.83v-.92h-1.83v-1.02h-.92v.92h-.92v.92h-.92v.92h-1.63v3.56h-.92v3.56h-.92v3.56h-.92v3.56h-.92v3.56h-.92v3.56h-.92v3.56h-.71v3.56h-.92v3.56h-.92v3.56h-.92v3.56h-.92v4.47h-.92v3.56h-.92v4.47h-.92v3.56h-.71v3.56h-.92v5.29h-.92v4.47h-.92v5.29h-.92v8.85h-.92v3.56h-.92v3.56h-.92v2.64h-.71v5.29h-.92v4.47h-.92v4.47h-.92v2.64h-.92v1.73h-.92v2.64h-.92v1.73h-.92v2.64h-.92v1.73h-.92v2.64h-.92v1.73h-.92v1.73h-.92v1.73h-.92v1.73h-.92v1.73h-.41v1.73h-.92v.92h-.92v1.73h-.92v1.73h-.92v1.73h-.91v1.73h-.92v.92h-.92v1.73h-.71v1.73h-.92v.92h-.92v1.73h-.92v.92h-.92v1.73h-.92v1.73h-.92v.92h-.92v1.73h-.71v.92h-.92v1.73h-.92v.92h-.92v1.73h-.92v.92h-.92v.92h-.92v.92h-.92v.92h-.71v.92h-.92v.92h-.92v1.73h-.92v.92h-.92v.92h-.92v.92h-.92v.92h-.92v.92h-.71v.92h-.92v.92h-.92v.92h-1.83v2.64h-.92v.92h-.92v.92h-.92v.92h-.71v.92h-1.83v.92h-1.83v.92h-.92v.92h-.92v.92h-.92v.92h-.71v50.64h-.92v8.03h-.92v8.03h-.92v.92h-.92v.92h-1.83v.92h-6.41v-.92h-.92v-.92h-.92v-.92h-.92v-.92h-.92v-.92h-.92v-1.73h-.92v-1.73h-.92v-4.47h.92v-1.73h.92v-1.73h.92v-2.64h.92v-45.25h-.92v-3.56h-.92v-3.56h-.92v-.92h-.92v-.92h-.92v-.92h-.92v-.92h-.2v-.92h-.92v-.92h-2.75v-.92h-3.46v-.92h-2.75v-.92h-2.75v-.92h-2.54v-.92h-1.83v-.92h-1.83v-.71h-1.83v-.92h-.71v-1.73h-.92v-1.73h-.92v-1.73h-.92v-1.73h-.92v-15.05h-.92v-30.2h.92v-4.47h.92v-4.47h.92v-5.29h.92v-3.56h.92v-3.56h.92v-3.56h.92v-3.56h.92v-3.56h.92v-3.56h.92v-3.56h.92v-4.47h.92v-2.64h.92v-2.64h.92v-3.56h.92v-2.64h.92v-3.66h.92v-2.64h.92v-3.56h.92v-2.64h.92v-3.56h-1.83v-.92h-.92v.92h-3.86v.92h-2.75v.92h-6.2v-.92h-2.75v-.92h-.92v-.92h-.92v-.92h-.71v-.92h-1.83v-.92h-1.83v-.92h-1.83v-.92h-4.37v-.92h-2.75v-.92h-1.83v-.92h-1.83v-.71h-1.83v-.92h-.92v-.92h-1.83v-.92h-1.83v-.92h-1.83v-.92h-.92v-2.54h-.92v.92h-2.95v.92h-.92v.92h-.92v.92h-1.83v1.73h-.92v.92h-.71v.92h-.92v1.73h-.92v.92h-.92v.92h-.92v.92h-2.75v.92h-.71v.92h-1.83v.92h-.92v.92h-.92v.92h-.91v2.64h-4.37v.92h-.92v.92h-.92v.92h-1.83v.92h-.92v.92h-.71v.92h-.92v.92h-.92v.92h-.92v.92h-.92v.92h-.92v.92h.92v.92h-.92v.92h-1.83v.92h-6.2v.92h-.92v3.56h-2.75v-.92h-.92v.92h-2.75v.92h-6.41v-1.53h-.92v-1.73h-.2v-1.73h-.92v-1.73h-2.75v-.92h-.92v.92h-4.37v-.92h-.92v-1.02h-.92v-.92h-.92v.92h-3.46v-.92h-.92v-1.73h-1.83v-.92h-1.83v-.92h-.92v-.92h-.71v-.92h-.92v-.81h-.92v-.92h-.92v-.92h-.92v-.92h-1.83v-.92h-1.63v-16.88h.92v-3.56h.92v-2.64h.92v-3.56h.92v-.92h.92v-1.73h.92v-1.73h.92v-1.73h.92v-1.73h.92v-1.73h.92v-1.83h.92v-.92h.92v-1.73h.92v-1.73h.92v-1.73h.92v-1.73h.92v-1.73h.92v-1.73h-3.15v1.73h-.92v.92h-.92v.92h-.92v.92h-.92v1.73h-.92v.92h-.71v.92h-.92v.92h-.92v.92h-.92v.92h-.92v.92h-.92v.92h-.92v.92h-.92v.92h-.71v1.73h-.92v1.73h-.92v1.73h-.92v.92h-1.83v.92h-.92v.92h-.92v.92h-.71v4.47h-.92v.92h-1.83v-.92h-.92v-2.64h-7.12v-.92h-1.73v-.92h-1.83v-.92h-6v-.92h-2.75v-.92h-1.83v-.92h-.92v1.73h-.92v.92h-.71v-.92h-.92v-.92h-.92v-.92h-6.2v-.92h-.92v-1.73h-.92v-22.17h.92v-4.78h.92v-4.47h.92v-4.47h.92v-2.64h.92v-2.64h.92v-2.64h.92v-2.64h.92v-2.64h.92v-3.56h.92v-2.64h.92v-2.64h.92v-2.64h.92v-2.64h.92v-2.64h-3.86v.92h-2.75v.92h-3.46v.92h-.92v.92h-1.83v.92h-1.83v.92h-.92v.92h-1.63v.92h-1.83v.92h-.92v.92h-.92v.92h-.92v.92h-.92v.92h-1.63v.92h-1.83v.92h-1.83v.92h-2.75v.92h-2.54v.92h-3.66v.92h-5.49v-.92h-2.75v-.92h-.92v-.92h-.92v1.73h-.92v1.73h-.92v.92h-.92v1.73h-.92v.92h-.92v1.73h-.2v1.73h-.92v.92h-.92v1.73h-.92v.92h-.92v1.73h-.92v.92h-.92v1.73h-.92v1.73h-.71v.92h-.92v1.73h-.92v.92h-.92v.92h.92v-.92h.92v-.92h.92v-.92h.92v-.92h.92v-1.73h.92v-.92h.92v-1.12h.92v-.92h.92v1.73h-.92v1.73h-.92v1.73h-.92v1.73h-.92v.92h-.92v1.73h-.92v.92h-.92v1.73h-.92v1.73h-.92v.92h-.92v1.73h-.92v.92h-.92v1.73h-.92v.92h-.71v1.73h-.92v.92h-.92v1.73h-.92v.92h2.75v-.92h.92v-1.73h.92v-.51h.92v-1.73h.92v-.92h.92v-1.73h.92v-.92h.92v-1.83h.92v-.92h.92v-.92h.92v-.92h.92v-.92h.92v-.92h.92v-.92h.92v-.92h.92v-.71h.92v1.73h-.92v1.73h-.92v.92h-.92v1.73h-.92v1.73h-.92v.92h-.92v1.73h-.92v1.73h-1.12v1.73h-.92v1.73h-.92v1.73h-.92v1.73h-.92v.92h1.83v1.73h-.92v.92h-.92v1.73h-.92v.92h-.92v1.73h-.92v.92h-.71v1.73h-.92v.92h-.92v1.73h-.92v.92h-.92v1.73h-.92v.92h-.92v1.73h-.92v.92h-.71v1.73h-.92v.92h-.92v1.73h-.92v.92h-.92v1.73h-.92v.92h-.92v1.73h-.92v.92h-.71v1.73h-.92v.92h-.92v.92h-.92v1.73h-.92v.92h-.92v.92h-.92v.92h-.92v1.73h-.71v.92h-.92v.92h-.92v1.73h-.92v.92h-.92v.92h-.92v.92h-.92v1.73h-.92v.92h-.92v.92h-.92v1.73h-.92v.92h-.92v.92h-.92v.92h-.92v1.73h-.92v.92h-.92v.92h-.92v.92h-.92v-.41h-.92v-.92h-.92v.92h-.92v.92h-.92v.92h-.92v.92h-1.12v.92h-.92v-1.73h.92v-2.64h-2.75v.92h-1.83v.92h-.92v-1.73h.92v-1.73h.92v-2.64h-2.54v1.73h-.92v.92h-.92v1.73h-.92v.92h-.92v.92h-.92v1.73h-.92v.92h-.92v.92h-.71v1.73h-.92v.92h-.92v.92h-.92v1.73h-.92v.92h-.92v1.73h-.92v.92h-.92v.92h-.71v1.73h-.92v.92h-.92v.92h-.92v1.73h-.92v.92h-.92v.92h-.92v1.73h-.92v.92h-.71v.92h-.92v1.73h-.92v1.73h-.92v.92h-.92v1.73h-.92v1.73h-.92v.92h-.92v1.73h-.71v1.73h-.92v.92h-.92v1.73h-.92v.92h-.92v1.73h-.92v1.73h-.92v.92h-.92v1.73h-.71v1.73h-.92v.92h-.92v1.73h-.92v1.73h-.92v.92h-.92v1.73h-.92v6.2h1.83v-.92h1.83v-.92h.92v-3.56h.92v-1.73h.92v-1.73h.92v-1.73h.92v2.64h-.92v4.47h-.92v3.56h-.92v3.56h-.92v2.64h-.92v2.64h-.92v2.64h-.92v2.64h-.92v1.73h-.92v2.64h-.92v1.73h-.92v1.73h-.92v2.64h-.92v1.73h-.92v1.73h-.92v2.64h-.92v1.73h-.92v1.73h-.41v4.47h-.92v3.56h-.92v3.56h-.92v3.56h-.92v3.56h-.92v2.64h-.92v1.73h-.92v1.73h-.71v1.73h-.92v1.73h-.92v.92h-.92v.92h-.92v.92h-.92v-1.73h.92v-1.73h.92v-2.64h.92v-1.73h.92v-1.73h-.92v.92h-.92v1.73h-.92v.92h-.92v3.56h-.92v2.64h.92v.92h-.92v.92h-.92v.92h-.71v.92h-.92v.92h-.92v.92h-.92v.92h-.92v.92h-.92v.92h-.92v.92h-.92v.92h-.71v.92h-.92v.92h-1.83v1.73h-.92v.92h-.92v1.73h-.92v.92h-.92v1.73h-.71v.92h-.92v.92h-.92v-.92h-.92v-1.73h-.92v1.73h-.92v.92h-.92v.92h-.92v.92h-.71v-2.64h-4.58v1.73h-.92v.92h-6.2v1.73h-.92v1.73h-.92v-.92h-.92v-.92h-.92v-.92h-1.83v-.92h-.92v.92h-.92v.92h-2.24v-3.56h.92v-4.47h-3.66v-2.64h-2.75v-3.56h-1.63v-.92h-1.83v-.92h-.92v-.92h-2.54v-.92h-.92v-4.47h.92v-.92h.92v-1.73h.92v-.92h.92v-.92h.92v-1.73h.92v-.92h.92v-.92h.71v-1.73h.92v-.61h.92v-.92h.92v-1.73h.92v-.92h.92v-.92h.92v-1.73h.92v-.92h.71v-.92h.92v-1.73h.92v-.92h.92v-1.73h.92v-.92h.92v-.92h.92v-1.73h.92v-.92h.92v-1.73h.92v-.92h.92v-.92h.92v-1.73h.92v-.92h.92v-1.73h.92v-.92h.41v-.92h.92v-1.83h.92v-.92h.92v-1.73h.92v-.92h.92v-.92h.92v-1.73h.92v-.92h.71v-1.73h1.83v-.92h.92v-.92h1.83v-.92h.92v-.92h.92v-1.73h.71v-1.73h.92v-1.73h.92v-2.64h.92v-1.73h.92v-1.73h.92v-1.73h.92v-2.64h.92v-1.73h.71v-1.73h.92v-1.73h.92v-2.64h.92v-2.64h.92v-3.05h.92v-2.64h.92v-2.64h.92v-2.64h.71v-2.64h.92v-2.64h.92v-2.64h.92v-3.56h.92v-2.64h.92v-3.56h.92v-2.85h.92v-3.56h.71v-2.64h.92v-3.56h.92v-2.64h.92v-3.56h.92v-3.56h.92v-2.64h.92v-3.56h.92v-2.64h.71v-3.56h.92v-2.64h.92v-3.56h.92v-3.56h.92v-8.03h-.92v.92h-1.83v.92h-2.75v.92h-.92v.92h-.92v.92h-1.83v.92h-.92v.92h-.71v.92h-.92v.92h-1.83v.92h-.92v.92h-.91v.92h-2.54v.92h-4.58v1.73h-.92v.92h-.92v.92h-.71v.92h-.92v.92h-.92v.92h-.92v.92h-5.29v-.92h-.92v-.92h-3.66v.92h-3.46v.92h-4.58v-.92h-3.46v-.92h-2.75v-.92h-3.66v-1.22h-2.75v-.92h-1.32v-.92h-1.83v-.92h-1.83v-.92h-1.83v-.92h-1.63v-.92h-.92v-.92h-.92v-.71h-.92v-.92h-.92v-.92h-.81v-.92h-.92v-.92h-.81v-.92h-.92v-.92h-.92v-1.63h-.92v-1.73h-.81v-1.73h-.92v-1.73h-.92v-1.93h-.92v-5.29h-.81v-5.29h-.92v-21.35h.92v-5.29h.92v-5.29h.92v-5.29h.92v-3.56h.92v-3.56h.92v-3.56h.92v-4.47h.71v-1.73h.92v-2.64h.92v-2.64h.92v-2.64h.92v-1.73h.92v-2.64h.92v-2.64h.92v-2.64h.71v-2.64h.92v-1.73h.92v-1.73h.92v-2.14h.92v-1.73h.92v-1.73h.92v-1.73h.92v-1.93h.71v-1.73h.92v-1.73h.92v-1.73h.92v-1.93h.92v-2.64h.92v-.92h.92v-1.73h.92v-.92h.92v-1.73h.92v-.92h.92v-1.73h.92v-1.73h.92v-.92h.92v-1.73h.92v-.92h.41v-1.73h.92v-.92h.92v-1.73h.92v-.92h.92v-1.73h.92v-.92h.92v-.92h.92v-.92h.71v-.92h.92v-.92h.92v-1.73h.92v-.92h.92v-.92h.92v-.92h.92v-.92h.92v-.92h.71v-1.73h.92v-.92h.92v-.92h.92v-.92h.92v-.92h.92v-.92h.92v-1.63h1.63v-.92h.92v-.92h.92v-.92h.92v-.92h.92v-.92h.92v-.92h.92v-.92h.92v-.71h.71v-.92h.92v-.92h.92v-.92h.92v-.92h.92v-.92h1.83v-.92h1.63v-.92h.92v-.71h1.83v-.92h.92v-.92h1.83v-.92h1.63v-.92h.92v-.92h1.83v-.92h.92v-.92h2.75v-.71h2.75v-.92h2.75v-.92h2.24v-.92h2.75v-.92h2.75v-.92h3.46v-.92h4.58v-.92h7.32v-.92h2.75v1.73h.92v1.73h.92v4.47h.92v4.47h.92v.92h1.83v.92h1.83v-.92h.92v-.92h.92v-.92h.92v-1.73h.92v-14.24h.92v-1.73h.92v-1.73h.92v1.73h.92v1.73h.92v1.73h.92v.92h.92v1.73h.92v.92h.92v.92h.92v.92h.92v.92h.92v1.73h.92v.92h.92v1.12h1.83v2.64h.92v.92h.92v1.73h.92v1.73h.92v1.73h7.32v-.92h.92v3.56h.92v3.56h.92v-.71h.92v-.92h.92v-.92h.92v8.03h-.92v8.03h-2.64v3.56h-.92v3.56h-.92v2.64h-.92v3.56h-.92v2.64h-.91v2.64h-.92v1.73h-.92v2.64h-.92v1.73h-.92v2.64h-.92v1.73h-.92v1.73h-.92v1.73h-.92v1.73h-.92v1.73h-.92v1.73h-.92v1.73h-.92v1.73h-.92v1.73h-.92v1.73h-.92v5.29h-.92v5.29h-.92v4.47h-.2v5.29h-.92v5.29h-.92v4.47h-.92v5.29h-.92v5.29h-.92v4.47h-.92v4.47h-.92v4.47h-.71v4.47h-.92v4.47h-.92v4.47h-.92v4.47h-.92v4.47h-.92v4.47h-.92v4.47h-.92v5.29h2.75v-.92h.92v-.92h.92v-.92h.92v-.92h.92v-1.73h.92v-1.73h.92v-1.73h.92v-.92h.92v-.92h.92v-1.73h1.83v-.92h1.83v-.92h.92v-.92h.92v-4.47h.92v.92h2.75v-.92h.92v-.92h.92v-.92h.92v-1.73h.92v-4.47h.92v-.92h1.83v-.92h.92v-.92h.92v-3.56h1.83v-.92h2.75v-.92h.92v-.92h.92v-1.02h.92v-1.73h.92v-.92h.92v-1.73h.92v-1.73h2.75v-1.02h4.58v-2.64h1.83v-.92h.92v-.92h1.83v-.92h.92v-6.2h.92v-1.73h.92v-2.64h.92v-.92h.92v-5.29h-.92v-2.64h-.92v-3.56h-.92v-2.64h-.92v-20.44h.92v-3.56h.92v-3.56h.92v-4.47h.92v-3.56h.92v-3.56h.92v-4.47h.92v-2.64h.92v-2.64h.92v-2.64h.92v-2.64h.92v-3.56h.92v-2.64h.92v-2.64h.92v-2.64h.92v-3.56h.92v-1.73h.92v-1.73h.92v-2.64h.92v-1.73h.92v-1.73h.92v-2.64h.92v-.92h.92v-1.73h.92v-.92h.92v-1.73h.92v-1.73h.92v-.92h.92v-1.73h.92v-1.73h.92v-.92h.92v-1.73h.92v-.92h.92v-1.73h.92v-1.73h.92v-.92h.92v-1.73h.92v-1.73h.92v-.92h.92v-.92h.92v-.92h.92v-1.32h.92v-.92h.92v-.92h.92v-.92h.92v-.92h.92v-.92h.92v-.92h.92v-.92h3.66v-.71h1.83v-.92h.92v-.92h.92v-.92h.92v-.92h.92v-.92h.92v-.92h.92v-.92h.92v-.71h.92v-4.47h-4.88v-.92h-.92v-.92h-.92v.92h-2.75v.92h-1.63v-.92h.92v-.92h1.83v-.81h.92v-.92h2.75v.92h2.75v.92h1.83v-.92h.92v-.92h.92v2.64h.92v1.73h.92v2.64h.92v1.73h.92v27.56h-.92v3.56h-1.32v3.56h-.92v2.64h-.92v3.56h-.92v3.56h-.92v2.64h-.91v3.56h-.92v3.56h-.92v2.64h-.71v3.56h-.92v2.64h-.92v2.64h-.92v2.64h-.92v2.64h-.92v2.64h-.92v1.73h-.92v1.73h-.71v1.73h-.92v1.73h-.92v1.73h-.92v1.73h2.75v-.92h.92v-.92h.92v-.92h.92v-.92h.92v-1.73h.92v-1.73h.92v-1.73h.92v-1.73h.92v-1.73h.92v-2.24h.92v-.92h.92v-.92h.92v-.92h.92v-.92h.92v-1.73h.92v3.56h-.92v2.64h-.92v6.2h.92v.92h2.75v-.92h.92v-.92h.92v-1.73h.92v-.92h.92v-1.73h1.83v-.92h.92v-.81h.92v-.92h.92v-.92h.92v-.92h.92v-.92h.92v1.73h-.92v2.64h1.83v-.71h.92v-.92h1.83v-.92h.92v-.92h1.73v-.92h.92v-.92h.92v-.92h1.83v-.92h.92v-.71h1.73v-.92h.92v-.92h1.73v-.92h.92v-.92h.92v-.92h1.73v-.92h.92v-.92h1.83v-.71h.92v-.92h1.83v-.92h.92v-.92h.92v-.92h1.83v-.92h.92v-.92h1.83v-.92h.92v-.71h1.83v-.92h.92v-.92h.92v-.92h3.66v-.92h.92v-.92h.92v-.92h.92v-.92h2.75v-.71h.92v-4.47h.92v-2.64h-2.64v-.92h2.75v.92h1.83v.92h2.75v.92h2.75v1.73h-.92v.92h-.92v2.64h.92v.92h.92v.92h.92v.92h2.75v2.64h6.41v-.92h1.83v1.73h-.92v5.29h.92v.92h.92v.92h1.83v1.73h.92v3.56h-.92v1.73h-.92v1.73h-.91v1.73h-.92v.92h-.92v1.73h-.92v1.73h-.92v1.73h-.92v1.73h-.92v.92h-.92v1.73h-.92v1.73h-1.32v1.73h-.92v1.73h-.92v1.73h-.92v1.73h-.92v1.73h-.91v1.73h-.92v1.73h-.92v2.64h-.71v1.73h-.92v1.73h-.92v1.73h-.92v1.73h-.92v1.73h-.92v1.73h-.92v1.73h-.92v1.73h-.71v1.73h-.92v1.73h-.92v.92h-.92v1.73h-.92v.92h-.92v1.73h-.92v.92h-.92v1.73h-.71v.92h-.92v1.73h-.92v.92h-.92v2.64h-.92v2.64h-.92v1.73h-.92v3.56h-.92v3.56h-.71v3.56h-.92v3.56h-.92v1.73h-.92v1.73h-.92v1.73h-.92v.92h-.92v8.03h.92v.92h.92v-1.73h.92v1.73h.92v.92h.92v2.64h-.92v1.73h-.92v1.73h.92v.92h4.58v-.92h1.83v-.92h1.83v-.92h2.75v-.92h2.75v-.92h2.75v-.92h2.75v3.56h1.83v-.92h.92v-.92h.92v-1.73h.92v.71h.92v-1.73h.92v-.92h.92v-.92h.92v-1.73h.92v-.92h.92v-1.73h.92v-.92h.92v-.92h.92v-1.73h.92v-.92h.92v-1.83h.92v-.92h.92v-.92h.92v-1.73h.92v-.92h.92v-1.73h.92v-.92h.92v-.92h.92v-1.73h.92v-.92h.92v-1.73h.92v-.92h.92v-1.73h.92v-.92h.92v-.92h.92v-.92h.92v-.92h.92v-1.63h.92v-.92h.92v-.92h.92v-.92h.92v-.92h.92v-1.73h.92v-.92h.92v-.81h.92v-.92h.92v-.92h.92v-1.73h.92v-.92h.92v-.92h.92v-.92h.92v-.81h.92v-1.73h.92v-.92h.92v-.92h.92v-.92h.92v-.92h.92v-1.73h.92v-.92h.92v-.92h.92v-.92h.92v-.92h.92v-1.73h.92v-.92h.92v-.81h.92v-.92h.92v-.92h.92v-.92h.92v-.92h.92v-.92h.92v-.92h.92v-.92h.92v-.71h.92v-.92h.92v-.92h.92v-.92h.92v-.92h.92v-.92h.92v-.92h.92v-.92h.92v-.92h.92v-.92h.92v-.92h.92v-.92h.92v-.92h.92v-.92h.92v-.92h.92v-.92h.92v-.92h.92v-.92h.92v-.92h.92v-.92h.92v-.92h.92v-.92h.92v-.92h.92v-.2h.92v-.92h1.83v-.92h.92v-.92h.92v-.92h.92v-.92h.92v-.92h1.83v-.92h.92v-.71h.92v-.92h.92v-.92h.92v-.92h1.83v-.92h.92v-.92h.92v-.92h.92v-.92h.92v-.71h1.83v-.92h.92v-.92h.92v-.92h.92v-.92h.92v-.92h1.83v-.92h.92v-.92h.92v-.71h.92v-.92h.92v-.92h1.83v-.92h.92v-.92h.92v-.92h.92v-.92h.92v1.73h-.92v3.56h.92v-.92h1.83v-.92h.92v-.92h.92v-.92h.92v-.92h1.83v-.92h.92v-.92h.92v.92h1.83v.92h.92v.92h-5.19v.92h-.92v.92h-.92v.92h-1.83v.92h-.92v.92h-.92v.92h-.92v.92h-1.63v1.73h-.92v.92h-.92v.92h-.92v.92h-.92v1.73h-.92v1.73h-.92v1.73h-.71v.92h-.92v.92h-.92v.92h-.92v2.64h.92v1.73h-.92v5.29h-.92v2.64h-.92v2.64h-.92v2.64h-.92v1.73h-.71v.92h-.92v.92h-.92v.92h-.92v.92h-.92v.92h-.92v.92h-.92v.92h-.92v.92h-.71v.92h-.92v.92h-.92v.92h-.92v.92h-.92v.92h-.92v.92h-.92v1.73h-.92v.92h-.71v.92h-.92v.92h-.92v.92h-.92v.92h-.92v.92h-.92v.92h-.92v.92h-.92v.92h-.92v.92h-.92v.92h-.92v.92h-.92v.92h-.92v.92h-.92v1.73h-.92v.92h-.91v.92h-.92v.92h-.92v.92h-.92v.92h-.92v.92h-.92v1.73h-.92v.92h-.92v.92h-.2v.92h-.92v.92h-.92v.92h-.92v.92h-.92v.92h-.91v1.73h-.92v.92h-.92v.92h-.71v1.73h-.92v.92h-.92v.92h-.92v1.73h-.92v.92h-.92v.92h-.92v1.73h-.92v.92h-.71v.92h-.92v.92h-.92v1.73h-.92v.92h-.92v1.73h-.92v.92h-.92v1.73h-.92v.92h-.71v1.73h-.92v.92h-.92v1.73h-.92v.92h-.92v1.73h-.92v.92h-.92v2.64h-.92v1.73h-.71v1.73h-.92v1.73h-.92v1.73h-.92v1.73h-.92v1.73h-.92v1.73h-.92v1.73h-.92v1.73h-.71v1.73h-.92v.92h-.92v.92h-.92v.92h-.92v.92h-.92v4.47h-.92v3.56h-.92v5.29h.92v.92h.92v-.92h.92v-.92h.92v-.92h.92v-.92h.92v-.92h.92v-.92h.92v-1.73h.92v-.92h.92v-.92h.92v-.92h.92v-.92h.92v-.92h.92v-1.73h.92v-.92h.92v-.92h.92v-1.73h.92v-.92h.92v-.92h.92v-1.73h.92v-.92h.92v-.92h.92v-1.73h.92v-.92h.92v-.92h.92v-1.73h.92v-.92h.92v-.92h.92v-.92h.92v-.92h.92v-.92h.92v-.92h.92v-1.73h.92v-.92h.92v-.92h.92v-.92h.92v-.92h.92v-.92h.92v-1.53h.92v-.92h.92v-.92h.92v-1.73h.92v-.92h.92v-.92h.92v-1.73h.92v-.92h.92v-.92h.92v-1.73h.92v-.92h.92v-.92h.92v-1.73h2.75v-.92h1.83v-.92h.92v-.92h.92v-.92h.92v-.92h.92v-.92h.92v-.92h.92v-1.73h.92v-.92h.92v-1.73h.92v-.92h.92v-6.2h1.83v8.85h.92v-.92h.92v-.92h.92v-1.73h.92v-2.64h-.92v-1.73h.92v-.92h.92v-.92h.92v-.92h.92v-1.73h.92v-5.29h.92v-5.29h.92v-.92h.92v-.92h.92v-.71h.92v-1.73h.92v-.92h.92v-1.73h.92v-1.73h.92v-1.73h.92v-1.73h.92v-1.73h.92v-1.73h.92v-1.73h.92v-1.73h.92v-1.73h.92v-1.73h.92v-1.73h.92v-1.73h.92v-1.73h.92v-1.73h.92v-2.64h.92v-.92h.92v-.92h.92v-.92h.92v-.92h.92v-1.42h.92v-.92h.92v-.92h.92v-.92h.92v-.92h.92v-.92h.92v-.92h.92v-.92h2.75v-.71h2.75v-.92h.92v6.2h.92v.92h.92v.92h.92v15.96h-.92v2.64h-.92v2.64h-.92v17.8h-.92v2.64h-.92v2.64h-.92v2.64h-.92v2.64h-.92v2.64h-3.66v2.64h-.92v2.64h-.92v2.64h-.92v2.64h-.92v2.64h-.92v2.64h-.92v3.56h-.92v2.64h-.71v3.56h-.92v2.64h-.92v2.64h-.92v3.56h-.92v2.64h-.92v2.64h-.92v3.56h-.92v2.64h-.71v2.64h1.83v-.92h1.83v-.92h2.75v-.92h2.75v-.51h1.83v-.92h.92v-.92h.92v-.92h.92v-.92h.92v-.92h.92v-.92h.92v-.92h.92v-.71h.92v-.92h.92v-.92h.92v-.92h.92v-.92h.92v-.92h.92v-.92h.92v-.92h.92v-.71h.92v-.92h.92v-.92h.92v-.92h.92v-.92h.92v-.92h.92v-.92h.92v-.92h.92v-1.73h.92v-.92h.92v-.92h.92v-.92h.92v-.92h.92v-.92h.92v-.92h.92v-.92h.92v-.92h.92v-.92h.92v-.92h.92v-.92h.92v-.92h.92v-.92h.92v-.92h.92v-1.73h.92v-.92h.92v-.92h.92v-.92h.92v-.92h.92v-.92h.92v-.2h.92v-.92h.92v-1.73h.92v-.92h.92v-1.73h.92v-.92h.92v-1.73h.92v-.92h.92v-1.73h.92v-.92h.92v-1.73h.92v-1.73h.92v-1.73h.92v-1.73h.92v-2.95h.92v-2.64h.92v-3.56h.92v-2.64h.92v-2.64h.92v-2.75h.92v-2.64h.92v-2.64h.92v-3.56h.92v-2.64h.92v-2.64h.92v-2.64h.92v-2.64h.92v-2.64h.92v-2.64h.92v-.92h.92v-1.83h.92v-1.73h.92v-1.73h.92v-1.73h.92v-1.93h.92v-.92h.92v-1.73h.92v-.92h.92v-1.73h.92v-.92h.92v-1.73h.92v-1.73h.92v-.92h.92v-.92h.92v-1.73h.92v-1.02h.92v-.92h.92v-1.73h.92v-.92h.92v-.92h.92v-1.73h.92v-.92h.92v-.92h.92v-1.73h.92v-.92h.92v-.92h.92v-1.73h1.83v-.92h.92v-.92h.92v-.92h.92v-1.73h.92v-2.64h.92v-1.73h.92v-1.73h1.83v-.92h.92v-.92h.92v-.92h.92v.92h.92v.92h.92v2.64h1.83v-.92h.92v-.92h.92v-.92h.92v-.92h.92v-.92h.92v-.71h.92v-.92h.92v-.92h.92v-.92h.92v-.92h.92v-.92h1.83v-.92h.92v-.92h.92v-.71h.92v-.92h.92v-.92h.92v-.92h.92v-.92h.92v-.92h.92v-.92h.92v-.92h.92v-.71h3.66v-.92h.92v-1.73h-.92v-.92h.92v-.92h.92v-.92h1.83v-.92h.92v-.81h1.83v-.92h.92v-.92h.92v.92h.92v1.73h-.92v6.3h.92v3.56h-.92v6.2h.92v.92h.92v.92h2.75v.92h1.83v.92h1.83v3.56h.92v7.12h1.83v-.92h.92v-.92h.92v4.47h-.92v4.47h-.92v5.29h-.92v5.29h-.92v2.64h-5.69v1.73h-.92v1.73h-.92v1.73h-.92v1.73h-.92v1.73h-.92v1.73h-.92v2.64h-.92v1.73h-.92v1.73h-.92v1.73h-.92v1.73h-.92v1.73h-.92v1.73h-.92v1.73h-.92v.92h-.91v1.73h-.92v.92h-.92v1.73h-.92v.92h-.92v1.73h-.92v.92h-.92v.92h-.92v1.73h-.2v.92h-.92v1.73h-.92v.92h-.92v1.73h-.92v.92h-.91v.92h-.92v1.73h-.92v.92h-.71v1.73h-.92v.92h-.92v1.73h-.92v.92h-.92v4.47h.92v3.56h.92v3.56h.92v3.56h.92v2.64h.92v19.52h.92v.92h1.83v4.47h.92v.92h5.49v-.92h9.15v-.92h1.83v-.92h1.83v-.92h1.83v-.92h1.83v-.92h1.83v-.92h1.83v-.92h.92v-.92h.92v-.92h1.83v-.92h.92v-.92h.92v-.92h1.73v-.92h.92v-.92h.92v.1h2.64v-.92h1.73v-.92h.92v-.92h.92v-.92h.92v-1.73h.92v-.92h.92v-1.73h.92v-1.73h.92v-1.73h.92v-1.73h.92v-1.73h.92v-1.73h.92v-1.73h.92v-1.73h.92v-1.73h.92v-1.73h.92v-2.64h.92v-2.24h.92v-1.73h.92v-2.64h.92v-1.73h.92v-1.73h.92v-2.64h.92v-1.73h.92v-1.73h.92v-2.64h.92v-1.73h.92v-2.64h.92v-.92h.92v-1.73h.92v-1.73h.92v-2.14h.92v-1.73h.92v-1.73h3.66v-.92h.92v-.92h.92v-.92h.92v-.92h1.83v-.92h.92v-.92h2.75v-.92h1.83v-.92h1.83v-.92h1.83v-.92h.92v-.92h.92v-.71h.92v-.92h.92v-.92h.92v-.92h.92v-.92h1.83v-.92h2.75v3.56h.92v-.92h.92v-.92h.92v-.92h.92v-.92h.92v-.92h.92v-.92h.92v-.61h.92v-.92h.92v1.73h.92v.92h.92v3.56h.92v7.12h.92v-.92h1.83v-.92h1.83v-.92h1.83v1.73h-.92v9.76h-.92v1.73h-4.07v1.73h-.92v.92h-.92v1.73h-.92v1.73h-.92v.92h-.92v1.73h-.92v1.73h-.92v.92h-.71v1.73h-.92v.92h-.92v2.64h-.92v1.73h-.92v2.64h-.92v1.73h-.92v1.73h-.92v2.64h-.71v1.73h-.92v1.73h-.92v2.64h-.92v1.73h-.92v2.64h-.92v1.73h-.92v2.64h-.92v1.73h-.71v2.64h-.92v1.73h-.92v2.64h-.92v1.73h-.92v2.64h-.92v1.73h-.92v1.73h-.92v2.64h-.71v1.73h-.92v1.73h-.92v3.56h-.92v2.64h-.92v2.64h-.92v2.64h-.92v2.64h-.92v2.64h-.92v2.64h-.92v2.64h-.92v2.64h-.92v2.64h-.92v2.64h-.92v3.56h-.92v2.64h-.91v3.56h-.92v2.64h-.92v2.64h-.92v5.29h-.92v5.29h-.92v5.29h3.66v-.92h.92v-.92h.92v-.92h.92v-.92h.92v-.92h.92v-.92h.92v-.92h.92v-.92h1.83v-.92h.92v-.92h.92v-.92h.92v-.92h.92v-.92h.92v-.92h.92v-.92h.92v-.92h.92v-.92h1.83v-.92h.92v1.22h.92v-.92h.92v-.92h.92v-.92h.92v-.92h.92v-.92h.92v-.92h.92v-.92h1.83v-.71h.92v-.92h.92v-.92h.92v-.92h.92v-.92h.92v-.92h.92v-.92h.92v-.92h.92v-.71h1.83v-.92h.92v-.92h.92v-.92h.92v-.92h.92v-.92h.92v-.92h.92v-.92h.92v-.71h.92v-.92h1.83v-.92h.92v-.92h.92v-.92h.92v-.92h.92v-.92h.92v-.92h.92v-.71h.92v-.92h.92v-.92h.92v-.92h.92v-.92h.92v-.92h.92v-.92h.92v-.92h.92v-.71h1.83v-.92h.92v-.92h.92v-.92h.92v-.92h.92v-.92h.92v-.92h.92v-.92h.92v-.92h.92v-.92h.92v-.92h.92v-.92h.92v-.92h.92v-.92h.92v-.92h.92v-.92h1.83v-.92h.92v-.92h.92v-.92h.92v-.92h.92v-.92h.92v-.92h.92v-.92h.92v-.2h.92v-.92h.92v-.92h.92v-.92h.92v-.92h.92v-.92h.92v-.92h.92v-.92h1.83v-.71h.92v-.92h.92v-.92h.92v-.92h.92v-.92h.92v-.92h.92v-.92h.92v-.92h.92v-.71h.92v-.92h.92v-.92h1.83v-.92h.92v-.92h.92v-.92h.92v-.92h.92v-.92h.92v-.71h.92v-.92h.92v-.92h.92v-.92h.92v-.92h.92v-.92h1.83v-.92h.92v-.92h.92v-.71h.92v-.92h.92v-.92h1.83v-.92h.92v-.92h.92v-.92h.92v-.92h.92v-.92h1.83v-.71h.92v-.92h.92v-.92h.92v-.92h.92v-.92h1.83v-.92h.92v-.92h.92v-.92h.92v-.92h.92v-.92h.92v-.92h1.83v-.92h.92v-.92h1.83v-.92h.92v-.92h.92v-.92h1.83v-.92h.92v-.92h.92v-.92h1.83v-.92h.92v-.92h1.83v-.92h.92v-.92h.92v-.2h1.83v-.92h.92v-.92h.92v-.92h1.73v-.92h.92v-.92h.92v-.92h1.73v-.92h.92v-.71h1.83v-.92h.92v-.92h1.73v-.92h.92v-.92h1.83v-.92h.92v-.92h.92v-.92h1.73v-.71h.92v-.92h1.83v-.92h.92v-.92h1.83v-.92h.92v-.92h1.83v-.92h.92v-.92h.92v-.71h2.75v-.92h1.83v-.92h1.83v-.92h1.83v-.92h3.66v-.92h6.41v-.92h.92v-.92h4.58v-.71h.92v-.92h.92v-1.73h1.83v-.92h.92v.92h1.83v1.73h-.92v.92h-.92v.92h-.92v.92h4.58v-.92h.92v-.92h.92v-.92h3.66v-.92h.92v1.73h.92v.92h.92v.92h.92v6.2h.92v6.2h-.92v2.64h-.92v9.76h-.92v1.73h-.92v2.64h-6.51v1.73h-.92v2.64h-.92v1.73h-.92v1.73h-.92v2.64h-.92v1.73h-.92v2.64h-.92v1.73h-.71v1.73h-.92v2.64h-.92v1.73h-.92v2.64h-.92v1.73h-.92v1.73h-.92v2.64h-.92v1.73h-.71v1.73h-.92v1.73h-.92v2.64h-.92v1.73h-.92v1.73h-.92v1.73h-.92v1.73h-.92v2.64h-.71v1.73h-.92v1.73h-.92v1.73h-.92v2.64h-.92v1.73h-.92v1.73h-.92v1.73h-.92v1.73h-.71v2.64h-.92v2.64h-.92v2.64h-.92v1.73h-.92v9.76h-.92v2.64h-.92v2.64h-.92v2.64h-.92v2.64h-.92v2.64h-.92v2.64h-.92v2.64h-.92v2.64h-.92v2.64h-.92v1.73h-.91v3.56h-.92v3.56h-.92v3.56h-.92v2.64h-.92v7.12h-.92v8.03h.92v.92h.92v.92h.92v.92h5.49v-.92h2.75v-.92h.92v-.92h.92v-.92h.92v.81h.92v-.92h.92v-.92h.92v-.92h.92v-1.73h.92v-1.73h1.83v-.92h1.83v-.92h.92v-.92h.92v-.92h.92v-.92h.92v-.92h.92v-.92h.92v-.92h.92v-1.73h1.83v-.92h1.83v-.92h.92v-.92h.92v-.92h.92v-.92h.92v-.92h.92v-.92h.92v-1.73h.92v-1.73h.92v-.92h.92v-.92h.92v-.51h.92v-.92h4.58v-.92h3.66v-.92h.92v-.92h.92v-.92h.92v-.92h1.83v-.92h.92v-.71h1.83v-.92h.92v-.92h.92v10.68h-.92v2.64h-.92v2.64h-.92v2.64h-.92v4.47h.92v.92h1.83v4.47h-.92v3.56h.92v.92h2.34v-.1Z"/>
</svg>