<?xml version="1.0" encoding="UTF-8"?>
<svg id="Layer_1" data-name="Layer 1" xmlns="http://www.w3.org/2000/svg" xmlns:xlink="http://www.w3.org/1999/xlink" viewBox="0 0 1354.65 500">
  <defs>
    <style>
      .cls-1 {
        fill: none;
      }

      .cls-2 {
        clip-path: url(#clippath);
      }

      .cls-3 {
        fill: #1d1e1c;
      }
    </style>
    <clipPath id="clippath">
      <path class="cls-1" d="M112,151.77c0,14.54-11.06,24.78-31.74,24.78h-30.92v-49.14h30.92c20.68,.2,31.74,9.83,31.74,24.37h0Zm66.14,149.06l-54.87-90.3c22.32-10.85,38.29-30.51,38.29-60.81,0-44.43-36.45-70.44-79.65-70.44H0v221.75H49.14v-79.85h25.39l48.32,79.85h55.28v-.2h0Zm122.65-96.03h-71.46c2.25-13.72,15.77-28.26,35.83-28.26s33.78,14.33,35.63,28.26h0Zm43.61,32.35c.61-3.69,1.02-11.26,1.02-16.79,0-45.25-32.97-82.93-81.49-82.93s-81.7,37.27-81.7,83.33c0,52.42,40.13,84.56,83.33,84.56,29.08,0,55.69-15.56,71.46-38.29l-37.27-19.25c-7.78,9.21-18.43,16.38-33.58,16.38-19.04,0-33.17-11.47-35.83-27.03h114.05Zm127.56,3.07c0,4.71,0,6.55-2.25,10.65-5.94,10.85-23.75,16.18-34.81,16.18-11.88,0-22.93-3.69-22.93-14.95,0-14.33,17.2-17.4,30.1-20.27,14.33-3.07,20.07-4.1,29.69-5.94v14.33h.2Zm-.2,60.61h44.84v-98.69c0-32.56-21.29-64.91-71.25-64.91-45.05,0-67.98,26.41-73.92,45.25l43,8.39c3.69-7.17,14.13-14.54,28.87-14.54,17.81,0,28.46,9.21,28.46,19.04-9.42,1.23-46.68,7.37-56.51,9.42-28.46,5.53-50.37,21.5-50.37,51.6,0,27.23,24.16,48.53,55.49,48.53,21.7,0,36.45-7.37,49.14-20.27h2.25v16.18h0Zm175.88-95.21l59.17-63.68h-57.95l-50.98,53.65V80.93h-46.07v220.32h46.07v-41.57l17.2-18.63,.2-.41,59.58,98.08h54.46l-81.7-133.09h0Zm131.86,99.92c19.04,0,35.22-4.71,39.93-6.14v-38.9c-2.87,1.02-15.15,3.07-25.8,3.07-14.95,0-21.7-10.03-21.7-24.78v-58.76h44.64v-37.67h-44.64v-40.34h-46.07V251.9c0,32.15,22.73,53.65,53.65,53.65h0Zm180.39-85.38c0,27.03-17.2,44.02-39.31,44.02s-39.31-16.99-39.31-44.02,18.84-42.79,39.31-42.79,39.31,16.18,39.31,42.79h0Zm44.84,0c0-46.48-36.86-82.93-84.15-82.93s-84.15,36.65-84.15,82.93c0,53.03,40.95,84.56,84.15,84.56s84.15-31.53,84.15-84.56h0Zm120.4-35.63v-47.3c-22.52,0-42.59,13.92-48.53,23.14v-18.63h-45.86v158.68h45.86v-76.78c.2-26,19.86-39.11,48.53-39.11h0Z"/>
    </clipPath>
  </defs>
  <path id="SVGID" class="cls-3" d="M112,151.77c0,14.54-11.06,24.78-31.74,24.78h-30.92v-49.14h30.92c20.68,.2,31.74,9.83,31.74,24.37h0Zm66.14,149.06l-54.87-90.3c22.32-10.85,38.29-30.51,38.29-60.81,0-44.43-36.45-70.44-79.65-70.44H0v221.75H49.14v-79.85h25.39l48.32,79.85h55.28v-.2h0Zm122.65-96.03h-71.46c2.25-13.72,15.77-28.26,35.83-28.26s33.78,14.33,35.63,28.26h0Zm43.61,32.35c.61-3.69,1.02-11.26,1.02-16.79,0-45.25-32.97-82.93-81.49-82.93s-81.7,37.27-81.7,83.33c0,52.42,40.13,84.56,83.33,84.56,29.08,0,55.69-15.56,71.46-38.29l-37.27-19.25c-7.78,9.21-18.43,16.38-33.58,16.38-19.04,0-33.17-11.47-35.83-27.03h114.05Zm127.56,3.07c0,4.71,0,6.55-2.25,10.65-5.94,10.85-23.75,16.18-34.81,16.18-11.88,0-22.93-3.69-22.93-14.95,0-14.33,17.2-17.4,30.1-20.27,14.33-3.07,20.07-4.1,29.69-5.94v14.33h.2Zm-.2,60.61h44.84v-98.69c0-32.56-21.29-64.91-71.25-64.91-45.05,0-67.98,26.41-73.92,45.25l43,8.39c3.69-7.17,14.13-14.54,28.87-14.54,17.81,0,28.46,9.21,28.46,19.04-9.42,1.23-46.68,7.37-56.51,9.42-28.46,5.53-50.37,21.5-50.37,51.6,0,27.23,24.16,48.53,55.49,48.53,21.7,0,36.45-7.37,49.14-20.27h2.25v16.18h0Zm175.88-95.21l59.17-63.68h-57.95l-50.98,53.65V80.93h-46.07v220.32h46.07v-41.57l17.2-18.63,.2-.41,59.58,98.08h54.46l-81.7-133.09h0Zm131.86,99.92c19.04,0,35.22-4.71,39.93-6.14v-38.9c-2.87,1.02-15.15,3.07-25.8,3.07-14.95,0-21.7-10.03-21.7-24.78v-58.76h44.64v-37.67h-44.64v-40.34h-46.07V251.9c0,32.15,22.73,53.65,53.65,53.65h0Zm180.39-85.38c0,27.03-17.2,44.02-39.31,44.02s-39.31-16.99-39.31-44.02,18.84-42.79,39.31-42.79,39.31,16.18,39.31,42.79h0Zm44.84,0c0-46.48-36.86-82.93-84.15-82.93s-84.15,36.65-84.15,82.93c0,53.03,40.95,84.56,84.15,84.56s84.15-31.53,84.15-84.56h0Zm120.4-35.63v-47.3c-22.52,0-42.59,13.92-48.53,23.14v-18.63h-45.86v158.68h45.86v-76.78c.2-26,19.86-39.11,48.53-39.11h0Z"/>
  <path id="SVGID-2" data-name="SVGID" class="cls-3" d="M112,151.77c0,14.54-11.06,24.78-31.74,24.78h-30.92v-49.14h30.92c20.68,.2,31.74,9.83,31.74,24.37h0Zm66.14,149.06l-54.87-90.3c22.32-10.85,38.29-30.51,38.29-60.81,0-44.43-36.45-70.44-79.65-70.44H0v221.75H49.14v-79.85h25.39l48.32,79.85h55.28v-.2h0Zm122.65-96.03h-71.46c2.25-13.72,15.77-28.26,35.83-28.26s33.78,14.33,35.63,28.26h0Zm43.61,32.35c.61-3.69,1.02-11.26,1.02-16.79,0-45.25-32.97-82.93-81.49-82.93s-81.7,37.27-81.7,83.33c0,52.42,40.13,84.56,83.33,84.56,29.08,0,55.69-15.56,71.46-38.29l-37.27-19.25c-7.78,9.21-18.43,16.38-33.58,16.38-19.04,0-33.17-11.47-35.83-27.03h114.05Zm127.56,3.07c0,4.71,0,6.55-2.25,10.65-5.94,10.85-23.75,16.18-34.81,16.18-11.88,0-22.93-3.69-22.93-14.95,0-14.33,17.2-17.4,30.1-20.27,14.33-3.07,20.07-4.1,29.69-5.94v14.33h.2Zm-.2,60.61h44.84v-98.69c0-32.56-21.29-64.91-71.25-64.91-45.05,0-67.98,26.41-73.92,45.25l43,8.39c3.69-7.17,14.13-14.54,28.87-14.54,17.81,0,28.46,9.21,28.46,19.04-9.42,1.23-46.68,7.37-56.51,9.42-28.46,5.53-50.37,21.5-50.37,51.6,0,27.23,24.16,48.53,55.49,48.53,21.7,0,36.45-7.37,49.14-20.27h2.25v16.18h0Zm175.88-95.21l59.17-63.68h-57.95l-50.98,53.65V80.93h-46.07v220.32h46.07v-41.57l17.2-18.63,.2-.41,59.58,98.08h54.46l-81.7-133.09h0Zm131.86,99.92c19.04,0,35.22-4.71,39.93-6.14v-38.9c-2.87,1.02-15.15,3.07-25.8,3.07-14.95,0-21.7-10.03-21.7-24.78v-58.76h44.64v-37.67h-44.64v-40.34h-46.07V251.9c0,32.15,22.73,53.65,53.65,53.65h0Zm180.39-85.38c0,27.03-17.2,44.02-39.31,44.02s-39.31-16.99-39.31-44.02,18.84-42.79,39.31-42.79,39.31,16.18,39.31,42.79h0Zm44.84,0c0-46.48-36.86-82.93-84.15-82.93s-84.15,36.65-84.15,82.93c0,53.03,40.95,84.56,84.15,84.56s84.15-31.53,84.15-84.56h0Zm120.4-35.63v-47.3c-22.52,0-42.59,13.92-48.53,23.14v-18.63h-45.86v158.68h45.86v-76.78c.2-26,19.86-39.11,48.53-39.11h0Z"/>
  <g>
    <path id="SVGID-3" data-name="SVGID" class="cls-3" d="M112,151.77c0,14.54-11.06,24.78-31.74,24.78h-30.92v-49.14h30.92c20.68,.2,31.74,9.83,31.74,24.37h0Zm66.14,149.06l-54.87-90.3c22.32-10.85,38.29-30.51,38.29-60.81,0-44.43-36.45-70.44-79.65-70.44H0v221.75H49.14v-79.85h25.39l48.32,79.85h55.28v-.2h0Zm122.65-96.03h-71.46c2.25-13.72,15.77-28.26,35.83-28.26s33.78,14.33,35.63,28.26h0Zm43.61,32.35c.61-3.69,1.02-11.26,1.02-16.79,0-45.25-32.97-82.93-81.49-82.93s-81.7,37.27-81.7,83.33c0,52.42,40.13,84.56,83.33,84.56,29.08,0,55.69-15.56,71.46-38.29l-37.27-19.25c-7.78,9.21-18.43,16.38-33.58,16.38-19.04,0-33.17-11.47-35.83-27.03h114.05Zm127.56,3.07c0,4.71,0,6.55-2.25,10.65-5.94,10.85-23.75,16.18-34.81,16.18-11.88,0-22.93-3.69-22.93-14.95,0-14.33,17.2-17.4,30.1-20.27,14.33-3.07,20.07-4.1,29.69-5.94v14.33h.2Zm-.2,60.61h44.84v-98.69c0-32.56-21.29-64.91-71.25-64.91-45.05,0-67.98,26.41-73.92,45.25l43,8.39c3.69-7.17,14.13-14.54,28.87-14.54,17.81,0,28.46,9.21,28.46,19.04-9.42,1.23-46.68,7.37-56.51,9.42-28.46,5.53-50.37,21.5-50.37,51.6,0,27.23,24.16,48.53,55.49,48.53,21.7,0,36.45-7.37,49.14-20.27h2.25v16.18h0Zm175.88-95.21l59.17-63.68h-57.95l-50.98,53.65V80.93h-46.07v220.32h46.07v-41.57l17.2-18.63,.2-.41,59.58,98.08h54.46l-81.7-133.09h0Zm131.86,99.92c19.04,0,35.22-4.71,39.93-6.14v-38.9c-2.87,1.02-15.15,3.07-25.8,3.07-14.95,0-21.7-10.03-21.7-24.78v-58.76h44.64v-37.67h-44.64v-40.34h-46.07V251.9c0,32.15,22.73,53.65,53.65,53.65h0Zm180.39-85.38c0,27.03-17.2,44.02-39.31,44.02s-39.31-16.99-39.31-44.02,18.84-42.79,39.31-42.79,39.31,16.18,39.31,42.79h0Zm44.84,0c0-46.48-36.86-82.93-84.15-82.93s-84.15,36.65-84.15,82.93c0,53.03,40.95,84.56,84.15,84.56s84.15-31.53,84.15-84.56h0Zm120.4-35.63v-47.3c-22.52,0-42.59,13.92-48.53,23.14v-18.63h-45.86v158.68h45.86v-76.78c.2-26,19.86-39.11,48.53-39.11h0Z"/>
    <g>
      <path id="SVGID-4" data-name="SVGID" class="cls-3" d="M112,151.77c0,14.54-11.06,24.78-31.74,24.78h-30.92v-49.14h30.92c20.68,.2,31.74,9.83,31.74,24.37h0Zm66.14,149.06l-54.87-90.3c22.32-10.85,38.29-30.51,38.29-60.81,0-44.43-36.45-70.44-79.65-70.44H0v221.75H49.14v-79.85h25.39l48.32,79.85h55.28v-.2h0Zm122.65-96.03h-71.46c2.25-13.72,15.77-28.26,35.83-28.26s33.78,14.33,35.63,28.26h0Zm43.61,32.35c.61-3.69,1.02-11.26,1.02-16.79,0-45.25-32.97-82.93-81.49-82.93s-81.7,37.27-81.7,83.33c0,52.42,40.13,84.56,83.33,84.56,29.08,0,55.69-15.56,71.46-38.29l-37.27-19.25c-7.78,9.21-18.43,16.38-33.58,16.38-19.04,0-33.17-11.47-35.83-27.03h114.05Zm127.56,3.07c0,4.71,0,6.55-2.25,10.65-5.94,10.85-23.75,16.18-34.81,16.18-11.88,0-22.93-3.69-22.93-14.95,0-14.33,17.2-17.4,30.1-20.27,14.33-3.07,20.07-4.1,29.69-5.94v14.33h.2Zm-.2,60.61h44.84v-98.69c0-32.56-21.29-64.91-71.25-64.91-45.05,0-67.98,26.41-73.92,45.25l43,8.39c3.69-7.17,14.13-14.54,28.87-14.54,17.81,0,28.46,9.21,28.46,19.04-9.42,1.23-46.68,7.37-56.51,9.42-28.46,5.53-50.37,21.5-50.37,51.6,0,27.23,24.16,48.53,55.49,48.53,21.7,0,36.45-7.37,49.14-20.27h2.25v16.18h0Zm175.88-95.21l59.17-63.68h-57.95l-50.98,53.65V80.93h-46.07v220.32h46.07v-41.57l17.2-18.63,.2-.41,59.58,98.08h54.46l-81.7-133.09h0Zm131.86,99.92c19.04,0,35.22-4.71,39.93-6.14v-38.9c-2.87,1.02-15.15,3.07-25.8,3.07-14.95,0-21.7-10.03-21.7-24.78v-58.76h44.64v-37.67h-44.64v-40.34h-46.07V251.9c0,32.15,22.73,53.65,53.65,53.65h0Zm180.39-85.38c0,27.03-17.2,44.02-39.31,44.02s-39.31-16.99-39.31-44.02,18.84-42.79,39.31-42.79,39.31,16.18,39.31,42.79h0Zm44.84,0c0-46.48-36.86-82.93-84.15-82.93s-84.15,36.65-84.15,82.93c0,53.03,40.95,84.56,84.15,84.56s84.15-31.53,84.15-84.56h0Zm120.4-35.63v-47.3c-22.52,0-42.59,13.92-48.53,23.14v-18.63h-45.86v158.68h45.86v-76.78c.2-26,19.86-39.11,48.53-39.11h0Z"/>
      <g>
        <path id="SVGID-5" data-name="SVGID" class="cls-3" d="M112,151.77c0,14.54-11.06,24.78-31.74,24.78h-30.92v-49.14h30.92c20.68,.2,31.74,9.83,31.74,24.37h0Zm66.14,149.06l-54.87-90.3c22.32-10.85,38.29-30.51,38.29-60.81,0-44.43-36.45-70.44-79.65-70.44H0v221.75H49.14v-79.85h25.39l48.32,79.85h55.28v-.2h0Zm122.65-96.03h-71.46c2.25-13.72,15.77-28.26,35.83-28.26s33.78,14.33,35.63,28.26h0Zm43.61,32.35c.61-3.69,1.02-11.26,1.02-16.79,0-45.25-32.97-82.93-81.49-82.93s-81.7,37.27-81.7,83.33c0,52.42,40.13,84.56,83.33,84.56,29.08,0,55.69-15.56,71.46-38.29l-37.27-19.25c-7.78,9.21-18.43,16.38-33.58,16.38-19.04,0-33.17-11.47-35.83-27.03h114.05Zm127.56,3.07c0,4.71,0,6.55-2.25,10.65-5.94,10.85-23.75,16.18-34.81,16.18-11.88,0-22.93-3.69-22.93-14.95,0-14.33,17.2-17.4,30.1-20.27,14.33-3.07,20.07-4.1,29.69-5.94v14.33h.2Zm-.2,60.61h44.84v-98.69c0-32.56-21.29-64.91-71.25-64.91-45.05,0-67.98,26.41-73.92,45.25l43,8.39c3.69-7.17,14.13-14.54,28.87-14.54,17.81,0,28.46,9.21,28.46,19.04-9.42,1.23-46.68,7.37-56.51,9.42-28.46,5.53-50.37,21.5-50.37,51.6,0,27.23,24.16,48.53,55.49,48.53,21.7,0,36.45-7.37,49.14-20.27h2.25v16.18h0Zm175.88-95.21l59.17-63.68h-57.95l-50.98,53.65V80.93h-46.07v220.32h46.07v-41.57l17.2-18.63,.2-.41,59.58,98.08h54.46l-81.7-133.09h0Zm131.86,99.92c19.04,0,35.22-4.71,39.93-6.14v-38.9c-2.87,1.02-15.15,3.07-25.8,3.07-14.95,0-21.7-10.03-21.7-24.78v-58.76h44.64v-37.67h-44.64v-40.34h-46.07V251.9c0,32.15,22.73,53.65,53.65,53.65h0Zm180.39-85.38c0,27.03-17.2,44.02-39.31,44.02s-39.31-16.99-39.31-44.02,18.84-42.79,39.31-42.79,39.31,16.18,39.31,42.79h0Zm44.84,0c0-46.48-36.86-82.93-84.15-82.93s-84.15,36.65-84.15,82.93c0,53.03,40.95,84.56,84.15,84.56s84.15-31.53,84.15-84.56h0Zm120.4-35.63v-47.3c-22.52,0-42.59,13.92-48.53,23.14v-18.63h-45.86v158.68h45.86v-76.78c.2-26,19.86-39.11,48.53-39.11h0Z"/>
        <g class="cls-2">
          <rect class="cls-3" x="-9.42" y="69.66" width="1143.96" height="278.47"/>
        </g>
      </g>
    </g>
  </g>
</svg>