<svg width="196" height="40" viewBox="0 0 196 40" fill="none" xmlns="http://www.w3.org/2000/svg">
<rect x="0.7" y="0.7" width="194.6" height="38.6" rx="19.3" fill="#1E1E1B"/>
<path d="M22.8525 24.2207C23.2636 27.1532 25.3191 29.7842 30.1153 29.7842C34.7744 29.7842 37.0492 27.3724 37.0492 24.3029C37.0492 21.8363 36.0899 19.726 30.6634 18.4105C27.3198 17.5883 26.251 16.8757 26.251 15.0943C26.251 13.2854 27.5391 12.244 29.8686 12.244C32.6641 12.244 33.7056 13.6417 34.0618 15.3135H36.6381C36.364 12.8195 34.5003 10.1885 29.9508 10.1885C25.7028 10.1885 23.6199 12.4906 23.6199 15.3409C23.6199 18.0268 25.1821 19.5615 29.6768 20.6578C33.4863 21.5622 34.4181 22.6311 34.4181 24.5495C34.4181 26.3584 33.2396 27.7561 30.2797 27.7561C27.5117 27.7561 25.9495 26.5228 25.4288 24.2207H22.8525Z" fill="white"/>
<path d="M40.7906 29.5375H43.312V20.603H53.2332V29.5375L55.782 29.5375V10.4625H53.2332V18.4379H43.312V10.4625H40.7906V29.5375Z" fill="white"/>
<path d="M68.7033 10.1885C62.9206 10.1885 59.7414 14.5461 59.7414 20C59.7414 25.4814 62.8657 29.8116 68.4841 29.8116C74.4861 29.8116 77.4186 25.1525 77.4186 19.8904C77.4186 14.2172 74.075 10.1885 68.7033 10.1885ZM68.5937 12.3536C72.7869 12.3536 74.7876 15.8342 74.7876 19.9452C74.7876 24.0014 73.0062 27.6465 68.5937 27.6465C64.4827 27.6465 62.3998 24.0288 62.3998 19.9178C62.3998 15.8616 64.2909 12.3536 68.5937 12.3536Z" fill="white"/>
<path d="M87.2315 29.5375C88.4374 25.1525 90.904 16.629 91.4795 13.7787H91.5069C91.9728 16.0535 94.412 25.1525 95.5631 29.5375H98.2763L103.84 10.4625L101.346 10.4625C100.304 14.3817 97.646 23.3985 97.0156 26.6872H96.9882C96.5771 24.4125 93.9735 14.738 92.8224 10.4625H90.3558C89.1225 15.3409 86.4915 24.3303 85.9982 26.7695H85.9708C85.6145 24.6043 83.559 16.7112 82.079 10.4625H79.3932L84.5182 29.5375H87.2315Z" fill="white"/>
<path d="M119.343 24.1384C118.631 25.9747 117.343 27.6739 114.41 27.6739C109.998 27.6739 108.381 23.7273 108.381 19.9726C108.381 16.1357 110.08 12.2988 114.301 12.2988C117.315 12.2988 118.686 13.861 119.371 15.9439H121.892C121.317 12.7647 118.878 10.1885 114.383 10.1885C108.6 10.1885 105.722 14.875 105.722 20.0549C105.722 25.454 108.6 29.7842 114.301 29.7842C118.631 29.7842 121.043 27.3724 121.892 24.1384H119.343Z" fill="white"/>
<path d="M135.695 23.8096L137.805 29.5375H140.518L133.42 10.4625H130.323L123.526 29.5375H126.048L128.103 23.8096H135.695ZM128.761 21.6444C130.213 17.369 131.337 14.135 131.803 12.518H131.83C132.241 13.9706 133.228 16.629 135.064 21.6444H128.761Z" fill="white"/>
<path d="M142.328 24.2207C142.739 27.1532 144.795 29.7842 149.591 29.7842C154.25 29.7842 156.525 27.3724 156.525 24.3029C156.525 21.8363 155.566 19.726 150.139 18.4105C146.795 17.5883 145.727 16.8757 145.727 15.0943C145.727 13.2854 147.015 12.244 149.344 12.244C152.14 12.244 153.181 13.6417 153.537 15.3135H156.114C155.84 12.8195 153.976 10.1885 149.426 10.1885C145.178 10.1885 143.096 12.4906 143.096 15.3409C143.096 18.0268 144.658 19.5615 149.152 20.6578C152.962 21.5622 153.894 22.6311 153.894 24.5495C153.894 26.3584 152.715 27.7561 149.755 27.7561C146.987 27.7561 145.425 26.5228 144.904 24.2207H142.328Z" fill="white"/>
<path d="M172.215 18.4653H162.733V12.6277L172.681 12.6277V10.4625L160.266 10.4625V29.5375H172.818L173.147 27.3724H162.733V20.6304H172.215V18.4653Z" fill="white"/>
<rect x="0.7" y="0.7" width="194.6" height="38.6" rx="19.3" stroke="white" stroke-width="1.4"/>
</svg>
