<svg width="180" height="40" viewBox="0 0 180 40" fill="none" xmlns="http://www.w3.org/2000/svg">
<rect x="0.7" y="0.7" width="178.6" height="38.6" rx="19.3" fill="#1E1E1B"/>
<path d="M22.749 24.2343C23.1601 27.1668 25.2156 29.7979 30.0118 29.7979C34.6709 29.7979 36.9456 27.3861 36.9456 24.3165C36.9456 21.85 35.9864 19.7396 30.5599 18.4241C27.2163 17.6019 26.1474 16.8894 26.1474 15.1079C26.1474 13.2991 27.4356 12.2576 29.7651 12.2576C32.5606 12.2576 33.602 13.6554 33.9583 15.3272H36.5345C36.2605 12.8332 34.3968 10.2021 29.8473 10.2021C25.5993 10.2021 23.5164 12.5043 23.5164 15.3546C23.5164 18.0404 25.0786 19.5752 29.5733 20.6715C33.3828 21.5759 34.3146 22.6447 34.3146 24.5632C34.3146 26.372 33.1361 27.7698 30.1762 27.7698C27.4081 27.7698 25.846 26.5365 25.3252 24.2343H22.749Z" fill="white"/>
<path d="M40.6871 29.5512H43.2359V21.7129H47.758C51.4853 21.7129 54.1711 19.7396 54.1711 16.0398C54.1711 12.5591 51.6223 10.4762 47.9224 10.4762H40.6871V29.5512ZM43.2359 12.6139H47.7306C49.9779 12.6139 51.5675 13.765 51.5675 16.0946C51.5675 18.3145 50.252 19.5752 47.6483 19.5752H43.2359V12.6139Z" fill="white"/>
<path d="M69.7119 18.4789H60.2293V12.6413L70.1779 12.6413V10.4762H57.7627V29.5512H70.3149L70.6438 27.3861H60.2293V20.6441H69.7119V18.4789Z" fill="white"/>
<path d="M84.7926 23.8232L86.9029 29.5512H89.6162L82.5179 10.4762H79.4209L72.6241 29.5512H75.1455L77.201 23.8232H84.7926ZM77.8588 21.6581C79.3113 17.3827 80.435 14.1487 80.9009 12.5317H80.9283C81.3394 13.9843 82.326 16.6427 84.1623 21.6581H77.8588Z" fill="white"/>
<path d="M92.6097 29.5512H95.1037V22.3707L97.5429 20.1507L104.86 29.5512H107.93L99.3243 18.5338L107.519 10.4762H104.367C101.38 13.5732 96.5289 18.3693 95.1037 19.8493V10.4762H92.6097V29.5512Z" fill="white"/>
<path d="M122.304 18.4789H112.821V12.6413H122.77V10.4762H110.354V29.5512L122.907 29.5512L123.236 27.3861L112.821 27.3861V20.6441H122.304V18.4789Z" fill="white"/>
<path d="M133.093 21.1648C136.519 21.1648 137.286 22.3433 137.286 25.0565V25.4402C137.286 27.2491 137.259 28.729 137.615 29.5512H140.082C139.753 28.7564 139.808 27.0846 139.808 25.7691V24.9469C139.808 21.6581 138.465 20.4796 136.903 20.0685C138.739 19.5752 140.164 18.0678 140.164 15.5738C140.164 12.6139 138.081 10.4762 134.162 10.4762H126.707V29.5512H129.201V21.1648H133.093ZM129.201 12.6139L133.641 12.6139C136.217 12.6139 137.533 13.765 137.533 15.7931C137.533 17.9308 136.272 19.0271 133.34 19.0271H129.201V12.6139Z" fill="white"/>
<path d="M143.054 24.2343C143.465 27.1668 145.521 29.7979 150.317 29.7979C154.976 29.7979 157.251 27.3861 157.251 24.3165C157.251 21.85 156.292 19.7396 150.865 18.4241C147.522 17.6019 146.453 16.8894 146.453 15.1079C146.453 13.2991 147.741 12.2576 150.07 12.2576C152.866 12.2576 153.907 13.6554 154.264 15.3272H156.84C156.566 12.8332 154.702 10.2021 150.153 10.2021C145.905 10.2021 143.822 12.5043 143.822 15.3546C143.822 18.0404 145.384 19.5752 149.879 20.6715C153.688 21.5759 154.62 22.6447 154.62 24.5632C154.62 26.372 153.441 27.7698 150.482 27.7698C147.713 27.7698 146.151 26.5365 145.631 24.2343H143.054Z" fill="white"/>
<rect x="0.7" y="0.7" width="178.6" height="38.6" rx="19.3" stroke="white" stroke-width="1.4"/>
</svg>
