<svg width="216" height="40" viewBox="0 0 216 40" fill="none" xmlns="http://www.w3.org/2000/svg">
<rect x="0.7" y="0.7" width="214.6" height="38.6" rx="19.3" fill="#1E1E1B"/>
<path d="M30.5287 29.5375C31.7346 25.1525 34.2012 16.629 34.7767 13.7787H34.8041C35.2701 16.0535 37.7092 25.1525 38.8603 29.5375H41.5736L47.1371 10.4625H44.6431C43.6017 14.3817 40.9432 23.3985 40.3129 26.6872H40.2855C39.8744 24.4125 37.2707 14.738 36.1197 10.4625H33.6531C32.4198 15.3409 29.7887 24.3303 29.2954 26.7695H29.268C28.9117 24.6043 26.8562 16.7112 25.3763 10.4625H22.6904L27.8155 29.5375H30.5287Z" fill="white"/>
<path d="M57.9816 10.1885C52.1988 10.1885 49.0196 14.5461 49.0196 20C49.0196 25.4814 52.144 29.8116 57.7623 29.8116C63.7644 29.8116 66.6969 25.1525 66.6969 19.8904C66.6969 14.2172 63.3533 10.1885 57.9816 10.1885ZM57.8719 12.3536C62.0651 12.3536 64.0658 15.8342 64.0658 19.9452C64.0658 24.0014 62.2844 27.6465 57.8719 27.6465C53.7609 27.6465 51.678 24.0288 51.678 19.9178C51.678 15.8616 53.5691 12.3536 57.8719 12.3536Z" fill="white"/>
<path d="M77.0559 21.1511C80.4817 21.1511 81.2491 22.3296 81.2491 25.0429V25.4265C81.2491 27.2354 81.2217 28.7153 81.578 29.5375H84.0446C83.7157 28.7427 83.7705 27.0709 83.7705 25.7554V24.9332C83.7705 21.6444 82.4276 20.466 80.8654 20.0549C82.7017 19.5615 84.1268 18.0542 84.1268 15.5602C84.1268 12.6003 82.0439 10.4625 78.1248 10.4625H70.6702V29.5375H73.1642V21.1511H77.0559ZM73.1642 12.6003H77.604C80.1803 12.6003 81.4958 13.7513 81.4958 15.7794C81.4958 17.9171 80.2351 19.0134 77.3026 19.0134H73.1642V12.6003Z" fill="white"/>
<path d="M88.3881 29.5375H90.8821V22.357L93.3213 20.1371L100.639 29.5375H103.708L95.1027 18.5201L103.297 10.4625L100.146 10.4625C97.1582 13.5595 92.3072 18.3556 90.8821 19.8356V10.4625H88.3881V29.5375Z" fill="white"/>
<path d="M104.735 24.2207C105.146 27.1532 107.202 29.7842 111.998 29.7842C116.657 29.7842 118.932 27.3724 118.932 24.3029C118.932 21.8363 117.972 19.726 112.546 18.4105C109.202 17.5883 108.133 16.8757 108.133 15.0943C108.133 13.2854 109.422 12.244 111.751 12.244C114.547 12.244 115.588 13.6417 115.944 15.3135H118.521C118.247 12.8195 116.383 10.1885 111.833 10.1885C107.585 10.1885 105.502 12.4906 105.502 15.3409C105.502 18.0268 107.065 19.5615 111.559 20.6578C115.369 21.5622 116.301 22.6311 116.301 24.5495C116.301 26.3584 115.122 27.7561 112.162 27.7561C109.394 27.7561 107.832 26.5228 107.311 24.2207H104.735Z" fill="white"/>
<path d="M122.673 29.5375H125.195V20.603H135.116V29.5375H137.665V10.4625H135.116V18.4379H125.195V10.4625H122.673V29.5375Z" fill="white"/>
<path d="M150.586 10.1885C144.803 10.1885 141.624 14.5461 141.624 20C141.624 25.4814 144.748 29.8116 150.367 29.8116C156.369 29.8116 159.301 25.1525 159.301 19.8904C159.301 14.2172 155.958 10.1885 150.586 10.1885ZM150.476 12.3536C154.669 12.3536 156.67 15.8342 156.67 19.9452C156.67 24.0014 154.889 27.6465 150.476 27.6465C146.365 27.6465 144.282 24.0288 144.282 19.9178C144.282 15.8616 146.173 12.3536 150.476 12.3536Z" fill="white"/>
<path d="M163.274 29.5375H165.823V21.6992H170.345C174.073 21.6992 176.759 19.726 176.759 16.0261C176.759 12.5454 174.21 10.4625 170.51 10.4625L163.274 10.4625V29.5375ZM165.823 12.6003H170.318C172.565 12.6003 174.155 13.7513 174.155 16.0809C174.155 18.3008 172.839 19.5615 170.236 19.5615H165.823V12.6003Z" fill="white"/>
<path d="M179.113 24.2207C179.524 27.1532 181.58 29.7842 186.376 29.7842C191.035 29.7842 193.31 27.3724 193.31 24.3029C193.31 21.8363 192.35 19.726 186.924 18.4105C183.58 17.5883 182.511 16.8757 182.511 15.0943C182.511 13.2854 183.799 12.244 186.129 12.244C188.924 12.244 189.966 13.6417 190.322 15.3135L192.898 15.3135C192.624 12.8195 190.761 10.1885 186.211 10.1885C181.963 10.1885 179.88 12.4906 179.88 15.3409C179.88 18.0268 181.442 19.5615 185.937 20.6578C189.747 21.5622 190.679 22.6311 190.679 24.5495C190.679 26.3584 189.5 27.7561 186.54 27.7561C183.772 27.7561 182.21 26.5228 181.689 24.2207H179.113Z" fill="white"/>
<rect x="0.7" y="0.7" width="214.6" height="38.6" rx="19.3" stroke="white" stroke-width="1.4"/>
</svg>
